<svg width="26" height="32" viewBox="0 0 26 32" fill="none" xmlns="http://www.w3.org/2000/svg">
<g clip-path="url(#clip0_1248_1407)">
<path d="M4.98202 31.9994C3.66329 31.9994 2.39858 31.4755 1.4661 30.5431C0.533626 29.6106 0.00976563 28.3459 0.00976563 27.0271C0.00976548 26.3181 0.149484 25.616 0.420938 24.9609C0.692391 24.3059 1.09026 23.7107 1.59181 23.2095C2.09335 22.7083 2.68875 22.3108 3.34398 22.0397C3.9992 21.7687 4.70141 21.6294 5.41048 21.6299H9.95426V27.0271C9.95426 28.3459 9.4304 29.6106 8.49793 30.5431C7.56545 31.4755 6.30074 31.9994 4.98202 31.9994Z" fill="#FFC107"/>
<path d="M25.9905 10.8809C25.9905 15.6838 23.2608 19.8233 17.8981 21.164C16.6028 21.484 15.2725 21.6407 13.9383 21.6305H9.99919V11.4027H9.96118C9.63986 11.3681 9.31684 11.3519 8.99368 11.3543C6.76226 11.3492 4.60925 12.177 2.95596 13.6756C1.30267 15.1743 0.2681 17.2359 0.0546875 19.4571V4.57488C0.0546875 3.36155 0.536683 2.19791 1.39464 1.33995C2.2526 0.481995 3.41624 0 4.62957 0L13.9383 0C21.9098 0 25.9905 4.49196 25.9905 10.8809Z" fill="#536DFE"/>
</g>
<defs>
<clipPath id="clip0_1248_1407">
<rect width="25.9808" height="32" fill="white" transform="translate(0.00976562)"/>
</clipPath>
</defs>
</svg>
