<svg width="16" height="16" viewBox="0 0 16 16" fill="none" xmlns="http://www.w3.org/2000/svg">
<rect width="16" height="16" rx="4" fill="url(#paint0_linear_1476_15749)"/>
<path d="M7.33399 8.66671H4.00065C3.81176 8.66671 3.65354 8.60271 3.52599 8.47471C3.39843 8.34671 3.33443 8.18849 3.33399 8.00004C3.33354 7.8116 3.39754 7.65338 3.52599 7.52538C3.65443 7.39738 3.81265 7.33338 4.00065 7.33338H7.33399V4.00004C7.33399 3.81115 7.39799 3.65293 7.52599 3.52538C7.65399 3.39782 7.81221 3.33382 8.00065 3.33338C8.1891 3.33293 8.34754 3.39693 8.47599 3.52538C8.60443 3.65382 8.66821 3.81204 8.66732 4.00004V7.33338H12.0007C12.1895 7.33338 12.348 7.39738 12.476 7.52538C12.604 7.65338 12.6678 7.8116 12.6673 8.00004C12.6669 8.18849 12.6029 8.34693 12.4753 8.47538C12.3478 8.60382 12.1895 8.6676 12.0007 8.66671H8.66732V12C8.66732 12.1889 8.60332 12.3474 8.47532 12.4754C8.34732 12.6034 8.1891 12.6672 8.00065 12.6667C7.81221 12.6663 7.65399 12.6023 7.52599 12.4747C7.39799 12.3472 7.33399 12.1889 7.33399 12V8.66671Z" fill="white"/>
<defs>
<linearGradient id="paint0_linear_1476_15749" x1="8" y1="0" x2="8" y2="16" gradientUnits="userSpaceOnUse">
<stop stop-color="#6681F4"/>
<stop offset="1" stop-color="#364CEB"/>
</linearGradient>
</defs>
</svg>
