<svg width="30" height="30" viewBox="0 0 30 30" fill="none" xmlns="http://www.w3.org/2000/svg">
<g clip-path="url(#clip0_1476_17050)">
<path d="M4.45312 3.28125H2.10938C1.72105 3.28125 1.40625 3.59605 1.40625 3.98438C1.40625 4.3727 1.72105 4.6875 2.10938 4.6875H4.45312C4.84145 4.6875 5.15625 4.3727 5.15625 3.98438C5.15625 3.59605 4.84145 3.28125 4.45312 3.28125Z" fill="#515366"/>
<path d="M27.8906 3.28125H25.5469C25.1585 3.28125 24.8438 3.59605 24.8438 3.98438C24.8438 4.3727 25.1585 4.6875 25.5469 4.6875H27.8906C28.279 4.6875 28.5938 4.3727 28.5938 3.98438C28.5938 3.59605 28.279 3.28125 27.8906 3.28125Z" fill="#515366"/>
<path d="M25.3125 4.6875L25.7812 6.09375H27.6562L28.125 4.6875H25.3125ZM1.875 4.6875L2.34375 6.09375H4.21875L4.6875 4.6875H1.875Z" fill="#A4BBDB"/>
<path d="M3.28125 0.46875C3.65421 0.46875 4.0119 0.616908 4.27562 0.880631C4.53934 1.14435 4.6875 1.50204 4.6875 1.875V3.28125H1.875V1.875C1.875 1.50204 2.02316 1.14435 2.28688 0.880631C2.5506 0.616908 2.90829 0.46875 3.28125 0.46875ZM26.7188 0.46875C27.0917 0.46875 27.4494 0.616908 27.7131 0.880631C27.9768 1.14435 28.125 1.50204 28.125 1.875V3.28125H25.3125V1.875C25.3125 1.50204 25.4607 1.14435 25.7244 0.880631C25.9881 0.616908 26.3458 0.46875 26.7188 0.46875Z" fill="#A4BBDB"/>
<path d="M25.7812 6.09375H27.6562V7.5H25.7812V6.09375ZM2.34375 6.09375H4.21875V7.5H2.34375V6.09375ZM2.34375 14.0625H4.21875V15.9375H2.34375V14.0625ZM25.7812 14.0625H27.6562V15.9375H25.7812V14.0625Z" fill="#515366"/>
<path d="M4.45312 28.125H2.10938C1.72105 28.125 1.40625 28.4398 1.40625 28.8281C1.40625 29.2165 1.72105 29.5312 2.10938 29.5312H4.45312C4.84145 29.5312 5.15625 29.2165 5.15625 28.8281C5.15625 28.4398 4.84145 28.125 4.45312 28.125Z" fill="black"/>
<path d="M27.8906 28.125H25.5469C25.1585 28.125 24.8438 28.4398 24.8438 28.8281C24.8438 29.2165 25.1585 29.5312 25.5469 29.5312H27.8906C28.279 29.5312 28.5938 29.2165 28.5938 28.8281C28.5938 28.4398 28.279 28.125 27.8906 28.125Z" fill="black"/>
<path d="M25.7812 22.5H27.6562V28.125H25.7812V22.5ZM2.34375 22.5H4.21875V28.125H2.34375V22.5Z" fill="#515366"/>
<path d="M27.1875 14.0625L29.5312 11.7188V14.0625H27.1875ZM0.46875 11.25L4.21875 7.5H0.46875V11.25ZM0.46875 19.6875L4.21875 15.9375H0.46875V19.6875ZM10.7812 7.5L4.21875 14.0625H0.9375L7.5 7.5H10.7812ZM17.3438 7.5L10.7812 14.0625H7.5L14.0625 7.5H17.3438ZM23.9062 7.5L17.3438 14.0625H14.0625L20.625 7.5H23.9062ZM29.5312 7.5V8.4375L23.9062 14.0625H20.625L27.1875 7.5H29.5312Z" fill="#FFC107"/>
<path d="M7.5 7.5L0.9375 14.0625H0.46875V11.25L4.21875 7.5H7.5ZM14.0625 7.5L7.5 14.0625H4.21875L10.7812 7.5H14.0625ZM20.625 7.5L14.0625 14.0625H10.7812L17.3438 7.5H20.625ZM27.1875 7.5L20.625 14.0625H17.3438L23.9062 7.5H27.1875ZM27.1875 14.0625L29.5312 11.7188V8.4375L23.9062 14.0625H27.1875Z" fill="#252840"/>
<path d="M27.1875 22.5L29.5312 20.1562V22.5H27.1875ZM10.7812 15.9375L4.21875 22.5H0.9375L7.5 15.9375H10.7812ZM17.3438 15.9375L10.7812 22.5H7.5L14.0625 15.9375H17.3438ZM23.9062 15.9375L17.3438 22.5H14.0625L20.625 15.9375H23.9062ZM29.5312 15.9375V16.875L23.9062 22.5H20.625L27.1875 15.9375H29.5312Z" fill="#FFC107"/>
<path d="M7.5 15.9375L0.9375 22.5H0.46875V19.6875L4.21875 15.9375H7.5ZM14.0625 15.9375L7.5 22.5H4.21875L10.7812 15.9375H14.0625ZM20.625 15.9375L14.0625 22.5H10.7812L17.3438 15.9375H20.625ZM27.1875 15.9375L20.625 22.5H17.3438L23.9062 15.9375H27.1875ZM27.1875 22.5L29.5312 20.1562V16.875L23.9062 22.5H27.1875Z" fill="#252840"/>
</g>
<defs>
<clipPath id="clip0_1476_17050">
<rect width="30" height="30" fill="white"/>
</clipPath>
</defs>
</svg>
