<svg width="12" height="15" viewBox="0 0 12 15" fill="none" xmlns="http://www.w3.org/2000/svg">
<path d="M6.00033 11.3334C6.35395 11.3334 6.69309 11.1929 6.94313 10.9429C7.19318 10.6928 7.33366 10.3537 7.33366 10.0001C7.33366 9.64646 7.19318 9.30732 6.94313 9.05727C6.69309 8.80722 6.35395 8.66675 6.00033 8.66675C5.6467 8.66675 5.30757 8.80722 5.05752 9.05727C4.80747 9.30732 4.66699 9.64646 4.66699 10.0001C4.66699 10.3537 4.80747 10.6928 5.05752 10.9429C5.30757 11.1929 5.6467 11.3334 6.00033 11.3334ZM10.0003 5.33342C10.3539 5.33342 10.6931 5.47389 10.9431 5.72394C11.1932 5.97399 11.3337 6.31313 11.3337 6.66675V13.3334C11.3337 13.687 11.1932 14.0262 10.9431 14.2762C10.6931 14.5263 10.3539 14.6667 10.0003 14.6667H2.00033C1.6467 14.6667 1.30756 14.5263 1.05752 14.2762C0.807468 14.0262 0.666992 13.687 0.666992 13.3334V6.66675C0.666992 6.31313 0.807468 5.97399 1.05752 5.72394C1.30756 5.47389 1.6467 5.33342 2.00033 5.33342H2.66699V4.00008C2.66699 3.11603 3.01818 2.26818 3.6433 1.64306C4.26842 1.01794 5.11627 0.666748 6.00033 0.666748C6.43807 0.666748 6.87152 0.752967 7.27594 0.920483C7.68036 1.088 8.04782 1.33353 8.35735 1.64306C8.66688 1.95259 8.91241 2.32005 9.07992 2.72447C9.24744 3.12889 9.33366 3.56234 9.33366 4.00008V5.33342H10.0003ZM6.00033 2.00008C5.46989 2.00008 4.96118 2.2108 4.58611 2.58587C4.21104 2.96094 4.00033 3.46965 4.00033 4.00008V5.33342H8.00033V4.00008C8.00033 3.46965 7.78961 2.96094 7.41454 2.58587C7.03947 2.2108 6.53076 2.00008 6.00033 2.00008Z" fill="#A3BDFA"/>
</svg>
