<svg width="55" height="52" viewBox="0 0 55 52" fill="none" xmlns="http://www.w3.org/2000/svg">
<path d="M51.8131 30.5919L51.7969 30.6C49.8964 32.0574 49.0912 34.5376 49.7677 36.8327L49.7757 36.8489C50.8547 40.4968 48.1813 44.1767 44.3803 44.2734H44.3643C41.9646 44.3378 39.8547 45.8678 39.0575 48.1306V48.1386C37.7851 51.7301 33.4529 53.1393 30.3204 50.973C28.3753 49.6448 25.8039 49.5755 23.7574 50.973H23.7494C20.617 53.1311 16.2846 51.73 15.0203 48.1305C14.6301 47.026 13.9139 46.066 12.9663 45.3773C12.0188 44.6886 10.8846 44.3036 9.71363 44.2733H9.69749C5.8967 44.1766 3.22311 40.4967 4.30223 36.8488L4.31024 36.8326C4.98652 34.5375 4.18127 32.0573 2.28098 30.5998L2.26485 30.5918C-0.754949 28.2726 -0.754949 23.731 2.26485 21.4118L2.28098 21.4038C4.18127 19.9463 4.98652 17.466 4.30223 15.171V15.1549C3.21499 11.5071 5.89659 7.82696 9.69749 7.73036H9.71363C12.1052 7.66593 14.2231 6.13589 15.0203 3.87315V3.86514C16.2845 0.273676 20.617 -1.13551 23.7494 1.03074H23.7574C25.7303 2.39163 28.3393 2.39163 30.3204 1.03074C33.4844 -1.15425 37.7926 0.295226 39.0575 3.86514V3.87315C39.8547 6.12787 41.9645 7.66604 44.3643 7.73036H44.3803C48.1812 7.82696 50.8547 11.5071 49.7757 15.1549L49.7677 15.171C49.0912 17.466 49.8964 19.9463 51.7969 21.4038L51.8131 21.4118C54.8329 23.731 54.8329 28.2727 51.8131 30.5919Z" fill="#A4BBDB"/>
<path d="M27.0419 41.0046C35.3262 41.0046 42.042 34.2888 42.042 26.0045C42.042 17.7202 35.3262 11.0044 27.0419 11.0044C18.7575 11.0044 12.0417 17.7202 12.0417 26.0045C12.0417 34.2888 18.7575 41.0046 27.0419 41.0046Z" fill="#E9F3FC"/>
<path d="M38.557 16.4027C35.9625 14.2683 32.6431 12.9854 29.0244 12.9854C20.7402 12.9854 14.0208 19.7048 14.0208 27.989C14.0208 31.6077 15.3037 34.9271 17.438 37.5216C14.1415 34.7718 12.0417 30.6354 12.0417 26.0043C12.0417 17.7199 18.7554 11.0063 27.0397 11.0063C31.6708 11.0063 35.8072 13.1061 38.557 16.4027Z" fill="black" fill-opacity="0.0627451"/>
<path d="M23.4723 31.869L20.1553 28.34C19.2866 27.4156 19.3314 25.9623 20.2554 25.0936C21.1795 24.2238 22.6335 24.2704 23.5015 25.1942L25.0849 26.8781L31.8155 19.1853C32.6497 18.2306 34.1008 18.1338 35.0563 18.9693C36.011 19.8047 36.1074 21.2554 35.2723 22.2101L26.8738 31.8084C25.9792 32.83 24.4002 32.8567 23.4723 31.869Z" fill="#347BFA"/>
</svg>
