<svg width="28" height="28" viewBox="0 0 28 28" fill="none" xmlns="http://www.w3.org/2000/svg">
<path d="M11.9085 17.1629L8.48511 13.7392C8.281 13.5353 8.02446 13.4309 7.71547 13.426C7.40674 13.4213 7.14553 13.5257 6.93184 13.7392C6.7184 13.9528 6.61168 14.2117 6.61168 14.5158C6.61168 14.8199 6.7184 15.0787 6.93184 15.2924L10.976 19.3366C11.2425 19.6028 11.5533 19.7359 11.9085 19.7359C12.2636 19.7359 12.5745 19.6028 12.8409 19.3366L21.0398 11.1377C21.2437 10.9336 21.348 10.6771 21.3529 10.3681C21.3576 10.0594 21.2532 9.79816 21.0398 9.58447C20.8261 9.37104 20.5672 9.26432 20.2632 9.26432C19.9591 9.26432 19.7002 9.37104 19.4865 9.58447L11.9085 17.1629ZM14.0026 28C12.0662 28 10.246 27.6326 8.54221 26.8977C6.83839 26.1628 5.35635 25.1655 4.09611 23.9057C2.83586 22.646 1.83805 21.1646 1.10268 19.4615C0.367561 17.7584 0 15.9388 0 14.0026C0 12.0662 0.367439 10.246 1.10232 8.54221C1.83719 6.83839 2.83451 5.35635 4.09426 4.09611C5.35402 2.83586 6.83544 1.83805 8.53853 1.10268C10.2416 0.367561 12.0612 0 13.9974 0C15.9338 0 17.754 0.367438 19.4578 1.10232C21.1616 1.83719 22.6437 2.83451 23.9039 4.09426C25.1641 5.35402 26.1619 6.83544 26.8973 8.53853C27.6324 10.2416 28 12.0612 28 13.9974C28 15.9338 27.6326 17.754 26.8977 19.4578C26.1628 21.1616 25.1655 22.6437 23.9057 23.9039C22.646 25.1641 21.1646 26.1619 19.4615 26.8973C17.7584 27.6324 15.9388 28 14.0026 28Z" fill="#00B012"/>
</svg>
