<svg width="16" height="13" viewBox="0 0 16 13" fill="none" xmlns="http://www.w3.org/2000/svg">
<path d="M2.69918 2.58315L1.4023 1.28627C1.14109 1.02506 1.13858 0.604065 1.40074 0.341901C1.66109 0.081551 2.08488 0.083231 2.34511 0.343456L13.6557 11.6541C13.9169 11.9153 13.9194 12.3363 13.6573 12.5984C13.3969 12.8588 12.9731 12.8571 12.7129 12.5969L10.9223 10.8062C10.0242 11.1474 9.05026 11.3321 8.0004 11.3321C5.61871 11.3321 3.62794 10.3816 2.02606 8.81016C1.47025 8.26493 1.0013 7.68195 0.615234 7.09794C0.380784 6.74328 0.223669 6.46206 0.140925 6.29035C0.063318 6.12931 0.0640868 5.86661 0.140925 5.70716C0.223669 5.53545 0.380784 5.25423 0.615234 4.89957C1.0013 4.31556 1.47025 3.73258 2.02606 3.18735C2.24328 2.97426 2.46765 2.77259 2.69918 2.58315L2.69918 2.58315ZM9.72496 9.60893L8.69113 8.5751C8.47083 8.63401 8.23928 8.66542 8.0004 8.66542C6.52765 8.66542 5.33374 7.47151 5.33374 5.99876C5.33374 5.75988 5.36515 5.52833 5.42406 5.30803L4.39023 4.2742C4.14034 4.79638 4.0004 5.38123 4.0004 5.99876C4.0004 8.20789 5.79127 9.99876 8.0004 9.99876C8.61793 9.99876 9.20278 9.85882 9.72496 9.60893ZM5.07854 1.19127C5.97665 0.850115 6.95055 0.665422 8.0004 0.665422C10.3821 0.665422 12.3729 1.61595 13.9748 3.18735C14.5306 3.73258 14.9995 4.31556 15.3856 4.89957C15.62 5.25423 15.7771 5.53545 15.8599 5.70716C15.9375 5.8682 15.9367 6.1309 15.8599 6.29035C15.7771 6.46206 15.62 6.74328 15.3856 7.09794C14.9995 7.68195 14.5306 8.26493 13.9748 8.81016C13.7575 9.02325 13.5332 9.22492 13.3016 9.41436L11.6106 7.72331C11.8605 7.20113 12.0004 6.61628 12.0004 5.99876C12.0004 3.78962 10.2095 1.99875 8.0004 1.99875C7.38288 1.99875 6.79803 2.13869 6.27585 2.38858L5.07854 1.19127ZM7.30968 3.42241C7.52998 3.3635 7.76153 3.33209 8.0004 3.33209C9.47316 3.33209 10.6671 4.526 10.6671 5.99876C10.6671 6.23763 10.6357 6.46918 10.5767 6.68948L7.30968 3.42241Z" fill="#666687"/>
</svg>
