<svg width="44" height="45" viewBox="0 0 44 45" fill="none" xmlns="http://www.w3.org/2000/svg">
<path d="M10.3006 31.9492C9.17531 31.9492 8.21909 32.3429 7.43153 33.1304C6.64425 33.9186 6.25032 34.8746 6.25032 35.9998C6.25032 37.1252 6.64396 38.0812 7.43153 38.8694C8.21939 39.6568 9.1756 40.0506 10.3006 40.0506C11.4069 40.0506 12.3583 39.6568 13.1553 38.8694C13.952 38.0822 14.3504 37.1252 14.3504 35.9998C14.3504 34.8746 13.9521 33.9193 13.1553 33.1304C12.3582 32.3436 11.4069 31.9492 10.3006 31.9492ZM9.4006 23.3997C9.4006 22.1623 8.96017 21.1032 8.07882 20.2212C7.19757 19.3399 6.13802 18.8994 4.90057 18.8994C3.66301 18.8994 2.60366 19.34 1.72231 20.2212C0.841161 21.1025 0.400635 22.1619 0.400635 23.3997C0.400635 24.637 0.841063 25.6958 1.72231 26.5774C2.60366 27.4589 3.66301 27.8995 4.90057 27.8995C6.13802 27.8995 7.19757 27.4589 8.07882 26.5774C8.96017 25.6964 9.4006 24.637 9.4006 23.3997ZM35.5001 13.0503C36.1184 13.0503 36.6489 12.8296 37.089 12.3892C37.5296 11.9484 37.7503 11.4185 37.7503 10.7999C37.7503 10.181 37.5296 9.65149 37.089 9.21096C36.6486 8.77014 36.1184 8.54988 35.5001 8.54988C34.8812 8.54988 34.3512 8.77054 33.9106 9.21096C33.4703 9.65159 33.2499 10.181 33.2499 10.7999C33.2499 11.4188 33.4703 11.9484 33.9106 12.3892C34.3512 12.83 34.8812 13.0503 35.5001 13.0503ZM10.3009 5.85018C8.9319 5.85018 7.76478 6.33306 6.79911 7.29853C5.83334 8.26401 5.35075 9.43123 5.35075 10.7999C5.35075 12.1691 5.83334 13.3358 6.79911 14.3016C7.76507 15.2674 8.93219 15.7502 10.3009 15.7502C11.6695 15.7502 12.8367 15.2671 13.8022 14.3016C14.7677 13.3358 15.2506 12.1688 15.2506 10.7999C15.2506 9.43123 14.7677 8.26401 13.8022 7.29853C12.8367 6.33306 11.6695 5.85018 10.3009 5.85018ZM42.8123 21.487C42.2875 20.9619 41.6501 20.6997 40.9003 20.6997C40.1499 20.6997 39.5124 20.9619 38.9876 21.487C38.463 22.012 38.2008 22.6497 38.2008 23.4001C38.2008 24.1498 38.463 24.7883 38.9876 25.3121C39.5127 25.8374 40.1499 26.0996 40.9003 26.0996C41.6501 26.0996 42.2879 25.8374 42.8123 25.3121C43.3376 24.7877 43.5995 24.1498 43.5995 23.4001C43.5995 22.6501 43.338 22.0123 42.8123 21.487ZM35.5001 32.8497C34.6371 32.8497 33.8965 33.1588 33.2776 33.7777C32.6594 34.3959 32.3498 35.1369 32.3498 35.9999C32.3498 36.8623 32.6594 37.6032 33.2776 38.2223C33.8965 38.8411 34.6372 39.1499 35.5001 39.1499C36.3625 39.1499 37.103 38.8405 37.722 38.2223C38.3409 37.6033 38.6501 36.8627 38.6501 35.9999C38.6501 35.1369 38.3409 34.3967 37.722 33.7777C37.1031 33.1587 36.3625 32.8497 35.5001 32.8497ZM22.9003 37.7991C21.9065 37.7991 21.058 38.1513 20.3545 38.8546C19.6516 39.5578 19.2999 40.4059 19.2999 41.3997C19.2999 42.3936 19.6512 43.2417 20.3545 43.9449C21.058 44.6481 21.9062 45.0001 22.9003 45.0001C23.8941 45.0001 24.7423 44.6481 25.4455 43.9449C26.1488 43.2417 26.5004 42.3936 26.5004 41.3997C26.5004 40.4059 26.1488 39.5578 25.4455 38.8546C24.7423 38.1513 23.8941 37.7991 22.9003 37.7991ZM22.9003 0C21.4005 0 20.1249 0.524751 19.0748 1.57474C18.025 2.62484 17.5001 3.90012 17.5001 5.4C17.5001 6.89997 18.0248 8.17466 19.0748 9.22485C20.1249 10.2746 21.4002 10.7997 22.9003 10.7997C24.4008 10.7997 25.6755 10.2749 26.7251 9.22485C27.7748 8.17516 28.2998 6.89997 28.2998 5.4C28.2998 3.90022 27.7748 2.62523 26.7251 1.57474C25.6755 0.525046 24.4008 0 22.9003 0Z" fill="url(#paint0_linear_1477_17258)"/>
<defs>
<linearGradient id="paint0_linear_1477_17258" x1="22.0001" y1="0" x2="22.0001" y2="45.0001" gradientUnits="userSpaceOnUse">
<stop stop-color="#6681F4"/>
<stop offset="1" stop-color="#364CEB"/>
</linearGradient>
</defs>
</svg>
