<svg width="1322" height="1444" viewBox="0 0 1322 1444" fill="none" xmlns="http://www.w3.org/2000/svg">
<g clip-path="url(#clip0_1443_23663)">
<path d="M0 6C0 2.68629 2.68629 0 6 0H362C365.314 0 368 2.68629 368 6V672C368 675.314 365.314 678 362 678H6.00001C2.6863 678 0 675.314 0 672V6Z" fill="white"/>
<path d="M0 6C0 2.68629 2.68629 0 6 0H362C365.314 0 368 2.68629 368 6V30H0V6Z" fill="#D9E4FD"/>
<rect x="134" y="4" width="84" height="21" rx="10.5" fill="#EDF3FE"/>
<path fill-rule="evenodd" clip-rule="evenodd" d="M314.625 10C310.966 10 308 12.9661 308 16.625C308 20.2839 310.966 23.25 314.625 23.25C318.284 23.25 321.25 20.2839 321.25 16.625C321.25 12.9661 318.284 10 314.625 10ZM333.554 10C329.895 10 326.929 12.9661 326.929 16.625C326.929 20.2839 329.895 23.25 333.554 23.25H354.375C358.034 23.25 361 20.2839 361 16.625C361 12.9661 358.034 10 354.375 10H333.554Z" fill="#EDF3FE"/>
<path fill-rule="evenodd" clip-rule="evenodd" d="M7 16.5C7 12.9101 9.91015 10 13.5 10C17.0899 10 20 12.9101 20 16.5C20 20.0899 17.0899 23 13.5 23C9.91015 23 7 20.0899 7 16.5ZM25.5714 16.5C25.5714 12.9101 28.4816 10 32.0714 10C35.6613 10 38.5714 12.9101 38.5714 16.5C38.5714 20.0899 35.6613 23 32.0714 23C28.4816 23 25.5714 20.0899 25.5714 16.5ZM50.6429 10C47.053 10 44.1429 12.9101 44.1429 16.5C44.1429 20.0899 47.053 23 50.6429 23C54.2327 23 57.1429 20.0899 57.1429 16.5C57.1429 12.9101 54.2327 10 50.6429 10Z" fill="#EDF3FE"/>
<path fill-rule="evenodd" clip-rule="evenodd" d="M12 131C12 126.582 15.5817 123 20 123H98C102.418 123 106 126.582 106 131V150C106 154.418 102.418 158 98 158H20C15.5817 158 12 154.418 12 150V131Z" fill="#EDF3FE"/>
<path fill-rule="evenodd" clip-rule="evenodd" d="M0 32C0 30.8954 0.895431 30 2 30H184H366C367.105 30 368 30.8954 368 32V103C368 104.105 367.105 105 366 105H2.00001C0.895441 105 0 104.105 0 103V32Z" fill="#EDF3FE"/>
<path fill-rule="evenodd" clip-rule="evenodd" d="M118 131C118 126.582 121.582 123 126 123H204C208.418 123 212 126.582 212 131V150C212 154.418 208.418 158 204 158H126C121.582 158 118 154.418 118 150V131Z" fill="#EDF3FE"/>
<path fill-rule="evenodd" clip-rule="evenodd" d="M224 131C224 126.582 227.582 123 232 123H310C314.418 123 318 126.582 318 131V150C318 154.418 314.418 158 310 158H232C227.582 158 224 154.418 224 150V131Z" fill="#EDF3FE"/>
<path fill-rule="evenodd" clip-rule="evenodd" d="M64 58C64 53.5817 67.5817 50 72 50H297C301.418 50 305 53.5817 305 58V77C305 81.4183 301.418 85 297 85H72C67.5817 85 64 81.4183 64 77V58Z" fill="white"/>
<path fill-rule="evenodd" clip-rule="evenodd" d="M15 60C15 58.8954 15.8954 58 17 58H36.3846C37.4892 58 38.3846 58.8954 38.3846 60V60.3846C38.3846 61.4892 37.4892 62.3846 36.3846 62.3846H17C15.8954 62.3846 15 61.4892 15 60.3846V60ZM15 67.3077C15 66.2031 15.8954 65.3077 17 65.3077H36.3846C37.4892 65.3077 38.3846 66.2031 38.3846 67.3077V67.6923C38.3846 68.7969 37.4892 69.6923 36.3846 69.6923H17C15.8954 69.6923 15 68.7969 15 67.6923V67.3077ZM17 72.6154C15.8954 72.6154 15 73.5108 15 74.6154V75C15 76.1046 15.8954 77 17 77H36.3846C37.4892 77 38.3846 76.1046 38.3846 75V74.6154C38.3846 73.5108 37.4892 72.6154 36.3846 72.6154H17Z" fill="white"/>
<path fill-rule="evenodd" clip-rule="evenodd" d="M330 131C330 126.582 333.582 123 338 123H416C420.418 123 424 126.582 424 131V150C424 154.418 420.418 158 416 158H338C333.582 158 330 154.418 330 150V131Z" fill="#EDF3FE"/>
<path fill-rule="evenodd" clip-rule="evenodd" d="M12 430C12 425.582 15.5817 422 20 422H349C353.418 422 357 425.582 357 430V638C357 642.418 353.418 646 349 646H20C15.5817 646 12 642.418 12 638V430Z" fill="#EDF3FE"/>
<path fill-rule="evenodd" clip-rule="evenodd" d="M27 587C27 585.895 27.8954 585 29 585H224C225.105 585 226 585.895 226 587V601C226 602.105 225.105 603 224 603H29C27.8954 603 27 602.105 27 601V587Z" fill="#DFE9FD"/>
<path fill-rule="evenodd" clip-rule="evenodd" d="M27 617C27 615.895 27.8954 615 29 615H157C158.105 615 159 615.895 159 617V631C159 632.105 158.105 633 157 633H29C27.8954 633 27 632.105 27 631V617Z" fill="#DFE9FD"/>
<path fill-rule="evenodd" clip-rule="evenodd" d="M299 588C299 586.895 299.895 586 301 586H340C341.105 586 342 586.895 342 588V602C342 603.105 341.105 604 340 604H301C299.895 604 299 603.105 299 602V588Z" fill="#DFE9FD"/>
<rect x="27" y="442" width="315" height="131" rx="8" fill="#DFE9FD"/>
<path fill-rule="evenodd" clip-rule="evenodd" d="M202.5 521.111V493.889C202.5 491.75 200.625 490 198.333 490H169.167C166.875 490 165 491.75 165 493.889V521.111C165 523.25 166.875 525 169.167 525H198.333C200.625 525 202.5 523.25 202.5 521.111ZM176.459 510.417L181.667 516.269L188.959 507.5L198.334 519.167H169.167L176.459 510.417Z" fill="white"/>
<path fill-rule="evenodd" clip-rule="evenodd" d="M333.6 67.8166C333.101 67.3178 332.727 66.7545 332.478 66.127C332.228 65.4994 332.104 64.8598 332.104 64.2082C332.104 63.5565 332.228 62.9129 332.478 62.2773C332.727 61.6417 333.101 61.0745 333.6 60.5757C334.099 60.0769 334.662 59.7068 335.289 59.4655C335.917 59.2241 336.56 59.1034 337.22 59.1034C337.88 59.1034 338.524 59.2241 339.151 59.4655C339.779 59.7068 340.342 60.0769 340.841 60.5757C341.339 61.0745 341.713 61.6417 341.963 62.2773C342.212 62.9129 342.337 63.5565 342.337 64.2082C342.337 64.8598 342.212 65.4994 341.963 66.127C341.713 66.7545 341.339 67.3177 340.841 67.8166C340.342 68.3153 339.779 68.6895 339.151 68.9389C338.524 69.1882 337.88 69.3129 337.22 69.3129C336.56 69.3129 335.917 69.1882 335.289 68.9389C334.662 68.6895 334.099 68.3154 333.6 67.8166ZM330.703 57.679C329.802 58.5801 329.126 59.5978 328.676 60.7322C328.225 61.8666 328 63.0211 328 64.1957C328 65.3703 328.225 66.5248 328.676 67.6591C329.126 68.7935 329.802 69.8113 330.703 70.7123C331.427 71.4364 332.232 72.0157 333.117 72.4501C334.002 72.8846 334.919 73.1741 335.868 73.3189C336.818 73.4638 337.771 73.4558 338.728 73.2949C339.686 73.134 340.599 72.8282 341.468 72.3777L346.897 77.8068C347.138 78.0482 347.404 78.2251 347.693 78.3378C347.983 78.4505 348.285 78.5068 348.598 78.5068C348.912 78.5068 349.214 78.4505 349.504 78.3378C349.793 78.2252 350.059 78.0482 350.3 77.8068C350.541 77.5655 350.718 77.3 350.831 77.0104C350.944 76.7207 351 76.419 351 76.1053C351 75.7915 350.944 75.4899 350.831 75.2003C350.718 74.9105 350.541 74.6452 350.3 74.4038L345.016 69.1195C345.579 68.2345 345.973 67.285 346.198 66.2714C346.424 65.2576 346.484 64.2439 346.379 63.2303C346.275 62.2166 346.001 61.2311 345.559 60.2737C345.116 59.3163 344.509 58.4515 343.737 57.6791C342.835 56.7941 341.818 56.1264 340.683 55.6758C339.549 55.2253 338.394 55 337.22 55C336.045 55 334.891 55.2253 333.756 55.6758C332.622 56.1263 331.604 56.794 330.703 57.679Z" fill="white"/>
<g clip-path="url(#clip1_1443_23663)">
<path d="M0 6C0 2.68629 2.68629 0 6 0H362C365.314 0 368 2.68629 368 6V672C368 675.314 365.314 678 362 678H6.00001C2.6863 678 0 675.314 0 672V6Z" fill="white"/>
<path d="M0 6C0 2.68629 2.68629 0 6 0H362C365.314 0 368 2.68629 368 6V30H0V6Z" fill="#D9E4FD"/>
<rect x="134" y="4" width="84" height="21" rx="10.5" fill="white"/>
<path fill-rule="evenodd" clip-rule="evenodd" d="M314.625 10C310.966 10 308 12.9661 308 16.625C308 20.2839 310.966 23.25 314.625 23.25C318.284 23.25 321.25 20.2839 321.25 16.625C321.25 12.9661 318.284 10 314.625 10ZM333.554 10C329.895 10 326.929 12.9661 326.929 16.625C326.929 20.2839 329.895 23.25 333.554 23.25H354.375C358.034 23.25 361 20.2839 361 16.625C361 12.9661 358.034 10 354.375 10H333.554Z" fill="white"/>
<path fill-rule="evenodd" clip-rule="evenodd" d="M7 16.5C7 12.9101 9.91015 10 13.5 10C17.0899 10 20 12.9101 20 16.5C20 20.0899 17.0899 23 13.5 23C9.91015 23 7 20.0899 7 16.5ZM25.5714 16.5C25.5714 12.9101 28.4816 10 32.0714 10C35.6613 10 38.5714 12.9101 38.5714 16.5C38.5714 20.0899 35.6613 23 32.0714 23C28.4816 23 25.5714 20.0899 25.5714 16.5ZM50.6429 10C47.053 10 44.1429 12.9101 44.1429 16.5C44.1429 20.0899 47.053 23 50.6429 23C54.2327 23 57.1429 20.0899 57.1429 16.5C57.1429 12.9101 54.2327 10 50.6429 10Z" fill="white"/>
<path fill-rule="evenodd" clip-rule="evenodd" d="M0 32C0 30.8954 0.895431 30 2 30H184H366C367.105 30 368 30.8954 368 32V676C368 677.105 367.105 678 366 678H2.00001C0.895441 678 0 677.105 0 676V32Z" fill="white"/>
<rect x="18" y="52" width="329" height="434" rx="8" fill="#DFE9FD"/>
<path fill-rule="evenodd" clip-rule="evenodd" d="M194.5 292.111V264.889C194.5 262.75 192.625 261 190.333 261H161.167C158.875 261 157 262.75 157 264.889V292.111C157 294.25 158.875 296 161.167 296H190.333C192.625 296 194.5 294.25 194.5 292.111ZM168.459 281.417L173.667 287.269L180.959 278.5L190.334 290.167H161.167L168.459 281.417Z" fill="white"/>
<path fill-rule="evenodd" clip-rule="evenodd" d="M18 617C18 612.582 21.5817 609 26 609H337C341.418 609 345 612.582 345 617V651C345 655.418 341.418 659 337 659H26C21.5817 659 18 655.418 18 651V617Z" fill="#7B97F8"/>
<path d="M147.109 640.266C143.992 640.266 142 637.969 142 634.367V634.352C142 630.797 144.023 628.461 147.109 628.461C149.609 628.461 151.367 629.867 151.812 632.008L151.828 632.086H150.406L150.383 632.008C149.922 630.555 148.789 629.758 147.109 629.758C144.875 629.758 143.438 631.555 143.438 634.352V634.367C143.438 637.203 144.852 638.969 147.117 638.969C149.133 638.969 150.492 637.68 150.492 635.773V635.5H147.328V634.266H151.898V635.641C151.898 638.422 149.992 640.266 147.109 640.266ZM157.656 640.148C155.25 640.148 153.797 638.461 153.797 635.82V635.812C153.797 633.211 155.281 631.43 157.57 631.43C159.859 631.43 161.25 633.133 161.25 635.648V636.18H155.188C155.227 637.922 156.188 638.938 157.688 638.938C158.828 638.938 159.531 638.398 159.758 637.891L159.789 637.82H161.148L161.133 637.883C160.844 639.023 159.641 640.148 157.656 640.148ZM157.562 632.641C156.312 632.641 155.359 633.492 155.211 635.094H159.867C159.727 633.43 158.805 632.641 157.562 632.641ZM166.352 640.062C164.617 640.062 163.891 639.422 163.891 637.812V632.703H162.562V631.578H163.891V629.398H165.297V631.578H167.141V632.703H165.297V637.469C165.297 638.461 165.641 638.859 166.516 638.859C166.758 638.859 166.891 638.852 167.141 638.828V639.984C166.875 640.031 166.617 640.062 166.352 640.062ZM176.562 640.148C174.688 640.148 173.398 639.242 173.242 637.852H174.633C174.859 638.555 175.531 639.016 176.609 639.016C177.742 639.016 178.547 638.477 178.547 637.711V637.695C178.547 637.125 178.117 636.727 177.078 636.477L175.773 636.164C174.195 635.789 173.484 635.102 173.484 633.891V633.883C173.484 632.484 174.828 631.43 176.617 631.43C178.383 631.43 179.609 632.312 179.797 633.688H178.461C178.281 633.023 177.625 632.562 176.609 632.562C175.609 632.562 174.875 633.078 174.875 633.82V633.836C174.875 634.406 175.297 634.766 176.289 635.008L177.586 635.32C179.172 635.703 179.938 636.391 179.938 637.594V637.609C179.938 639.109 178.477 640.148 176.562 640.148ZM184.961 640.062C183.227 640.062 182.5 639.422 182.5 637.812V632.703H181.172V631.578H182.5V629.398H183.906V631.578H185.75V632.703H183.906V637.469C183.906 638.461 184.25 638.859 185.125 638.859C185.367 638.859 185.5 638.852 185.75 638.828V639.984C185.484 640.031 185.227 640.062 184.961 640.062ZM190.094 640.148C188.492 640.148 187.281 639.18 187.281 637.648V637.633C187.281 636.133 188.391 635.266 190.352 635.148L192.766 635V634.234C192.766 633.195 192.133 632.633 190.875 632.633C189.867 632.633 189.203 633.008 188.984 633.664L188.977 633.688H187.617L187.625 633.641C187.844 632.32 189.125 631.43 190.922 631.43C192.977 631.43 194.125 632.484 194.125 634.234V640H192.766V638.758H192.641C192.109 639.656 191.227 640.148 190.094 640.148ZM188.672 637.617C188.672 638.469 189.398 638.969 190.375 638.969C191.758 638.969 192.766 638.062 192.766 636.859V636.094L190.516 636.234C189.234 636.312 188.672 636.766 188.672 637.602V637.617ZM196.609 640V631.578H197.969V632.828H198.094C198.414 631.945 199.203 631.43 200.344 631.43C200.602 631.43 200.891 631.461 201.023 631.484V632.805C200.742 632.758 200.484 632.727 200.188 632.727C198.891 632.727 197.969 633.547 197.969 634.781V640H196.609ZM205.852 640.062C204.117 640.062 203.391 639.422 203.391 637.812V632.703H202.062V631.578H203.391V629.398H204.797V631.578H206.641V632.703H204.797V637.469C204.797 638.461 205.141 638.859 206.016 638.859C206.258 638.859 206.391 638.852 206.641 638.828V639.984C206.375 640.031 206.117 640.062 205.852 640.062ZM211.984 640.148C209.578 640.148 208.125 638.461 208.125 635.82V635.812C208.125 633.211 209.609 631.43 211.898 631.43C214.188 631.43 215.578 633.133 215.578 635.648V636.18H209.516C209.555 637.922 210.516 638.938 212.016 638.938C213.156 638.938 213.859 638.398 214.086 637.891L214.117 637.82H215.477L215.461 637.883C215.172 639.023 213.969 640.148 211.984 640.148ZM211.891 632.641C210.641 632.641 209.688 633.492 209.539 635.094H214.195C214.055 633.43 213.133 632.641 211.891 632.641ZM220.797 640.148C218.664 640.148 217.266 638.422 217.266 635.797V635.781C217.266 633.141 218.656 631.43 220.797 631.43C221.953 631.43 222.961 632.008 223.422 632.906H223.547V628.234H224.906V640H223.547V638.656H223.422C222.906 639.594 221.969 640.148 220.797 640.148ZM221.109 638.945C222.641 638.945 223.578 637.742 223.578 635.797V635.781C223.578 633.836 222.641 632.633 221.109 632.633C219.57 632.633 218.656 633.82 218.656 635.781V635.797C218.656 637.758 219.57 638.945 221.109 638.945Z" fill="black"/>
<path fill-rule="evenodd" clip-rule="evenodd" d="M19 529C19 527.895 19.8954 527 21 527H216C217.105 527 218 527.895 218 529V543C218 544.105 217.105 545 216 545H21C19.8954 545 19 544.105 19 543V529Z" fill="#DFE9FD"/>
<path fill-rule="evenodd" clip-rule="evenodd" d="M19 559C19 557.895 19.8954 557 21 557H184C185.105 557 186 557.895 186 559V573C186 574.105 185.105 575 184 575H21C19.8954 575 19 574.105 19 573V559Z" fill="#DFE9FD"/>
</g>
</g>
<g clip-path="url(#clip2_1443_23663)">
<path d="M0 772C0 768.686 2.68629 766 6 766H362C365.314 766 368 768.686 368 772V1438C368 1441.31 365.314 1444 362 1444H6.00001C2.6863 1444 0 1441.31 0 1438V772Z" fill="white"/>
<path d="M0 772C0 768.686 2.68629 766 6 766H362C365.314 766 368 768.686 368 772V796H0V772Z" fill="#D9E4FD"/>
<rect x="134" y="770" width="84" height="21" rx="10.5" fill="#EDF3FE"/>
<path fill-rule="evenodd" clip-rule="evenodd" d="M314.625 776C310.966 776 308 778.966 308 782.625C308 786.284 310.966 789.25 314.625 789.25C318.284 789.25 321.25 786.284 321.25 782.625C321.25 778.966 318.284 776 314.625 776ZM333.554 776C329.895 776 326.929 778.966 326.929 782.625C326.929 786.284 329.895 789.25 333.554 789.25H354.375C358.034 789.25 361 786.284 361 782.625C361 778.966 358.034 776 354.375 776H333.554Z" fill="#EDF3FE"/>
<path fill-rule="evenodd" clip-rule="evenodd" d="M7 782.5C7 778.91 9.91015 776 13.5 776C17.0899 776 20 778.91 20 782.5C20 786.09 17.0899 789 13.5 789C9.91015 789 7 786.09 7 782.5ZM25.5714 782.5C25.5714 778.91 28.4816 776 32.0714 776C35.6613 776 38.5714 778.91 38.5714 782.5C38.5714 786.09 35.6613 789 32.0714 789C28.4816 789 25.5714 786.09 25.5714 782.5ZM50.6429 776C47.053 776 44.1429 778.91 44.1429 782.5C44.1429 786.09 47.053 789 50.6429 789C54.2327 789 57.1429 786.09 57.1429 782.5C57.1429 778.91 54.2327 776 50.6429 776Z" fill="#EDF3FE"/>
<path fill-rule="evenodd" clip-rule="evenodd" d="M12 897C12 892.582 15.5817 889 20 889H98C102.418 889 106 892.582 106 897V916C106 920.418 102.418 924 98 924H20C15.5817 924 12 920.418 12 916V897Z" fill="#EDF3FE"/>
<path fill-rule="evenodd" clip-rule="evenodd" d="M0 798C0 796.895 0.895431 796 2 796H184H366C367.105 796 368 796.895 368 798V869C368 870.105 367.105 871 366 871H2.00001C0.895441 871 0 870.105 0 869V798Z" fill="#EDF3FE"/>
<path fill-rule="evenodd" clip-rule="evenodd" d="M118 897C118 892.582 121.582 889 126 889H204C208.418 889 212 892.582 212 897V916C212 920.418 208.418 924 204 924H126C121.582 924 118 920.418 118 916V897Z" fill="#EDF3FE"/>
<path fill-rule="evenodd" clip-rule="evenodd" d="M224 897C224 892.582 227.582 889 232 889H310C314.418 889 318 892.582 318 897V916C318 920.418 314.418 924 310 924H232C227.582 924 224 920.418 224 916V897Z" fill="#EDF3FE"/>
<path fill-rule="evenodd" clip-rule="evenodd" d="M64 824C64 819.582 67.5817 816 72 816H297C301.418 816 305 819.582 305 824V843C305 847.418 301.418 851 297 851H72C67.5817 851 64 847.418 64 843V824Z" fill="white"/>
<path fill-rule="evenodd" clip-rule="evenodd" d="M15 826C15 824.895 15.8954 824 17 824H36.3846C37.4892 824 38.3846 824.895 38.3846 826V826.385C38.3846 827.489 37.4892 828.385 36.3846 828.385H17C15.8954 828.385 15 827.489 15 826.385V826ZM15 833.308C15 832.203 15.8954 831.308 17 831.308H36.3846C37.4892 831.308 38.3846 832.203 38.3846 833.308V833.692C38.3846 834.797 37.4892 835.692 36.3846 835.692H17C15.8954 835.692 15 834.797 15 833.692V833.308ZM17 838.615C15.8954 838.615 15 839.511 15 840.615V841C15 842.105 15.8954 843 17 843H36.3846C37.4892 843 38.3846 842.105 38.3846 841V840.615C38.3846 839.511 37.4892 838.615 36.3846 838.615H17Z" fill="white"/>
<path fill-rule="evenodd" clip-rule="evenodd" d="M330 897C330 892.582 333.582 889 338 889H416C420.418 889 424 892.582 424 897V916C424 920.418 420.418 924 416 924H338C333.582 924 330 920.418 330 916V897Z" fill="#EDF3FE"/>
<path fill-rule="evenodd" clip-rule="evenodd" d="M12 1196C12 1191.58 15.5817 1188 20 1188H349C353.418 1188 357 1191.58 357 1196V1404C357 1408.42 353.418 1412 349 1412H20C15.5817 1412 12 1408.42 12 1404V1196Z" fill="#EDF3FE"/>
<path fill-rule="evenodd" clip-rule="evenodd" d="M27 1353C27 1351.9 27.8954 1351 29 1351H224C225.105 1351 226 1351.9 226 1353V1367C226 1368.1 225.105 1369 224 1369H29C27.8954 1369 27 1368.1 27 1367V1353Z" fill="#DFE9FD"/>
<path fill-rule="evenodd" clip-rule="evenodd" d="M27 1383C27 1381.9 27.8954 1381 29 1381H157C158.105 1381 159 1381.9 159 1383V1397C159 1398.1 158.105 1399 157 1399H29C27.8954 1399 27 1398.1 27 1397V1383Z" fill="#DFE9FD"/>
<path fill-rule="evenodd" clip-rule="evenodd" d="M299 1354C299 1352.9 299.895 1352 301 1352H340C341.105 1352 342 1352.9 342 1354V1368C342 1369.1 341.105 1370 340 1370H301C299.895 1370 299 1369.1 299 1368V1354Z" fill="#DFE9FD"/>
<rect x="27" y="1208" width="315" height="131" rx="8" fill="#DFE9FD"/>
<path fill-rule="evenodd" clip-rule="evenodd" d="M202.5 1287.11V1259.89C202.5 1257.75 200.625 1256 198.333 1256H169.167C166.875 1256 165 1257.75 165 1259.89V1287.11C165 1289.25 166.875 1291 169.167 1291H198.333C200.625 1291 202.5 1289.25 202.5 1287.11ZM176.459 1276.42L181.667 1282.27L188.959 1273.5L198.334 1285.17H169.167L176.459 1276.42Z" fill="white"/>
<path fill-rule="evenodd" clip-rule="evenodd" d="M333.6 833.817C333.101 833.318 332.727 832.754 332.478 832.127C332.228 831.499 332.104 830.86 332.104 830.208C332.104 829.556 332.228 828.913 332.478 828.277C332.727 827.642 333.101 827.075 333.6 826.576C334.099 826.077 334.662 825.707 335.289 825.465C335.917 825.224 336.56 825.103 337.22 825.103C337.88 825.103 338.524 825.224 339.151 825.465C339.779 825.707 340.342 826.077 340.841 826.576C341.339 827.075 341.713 827.642 341.963 828.277C342.212 828.913 342.337 829.556 342.337 830.208C342.337 830.86 342.212 831.499 341.963 832.127C341.713 832.754 341.339 833.318 340.841 833.817C340.342 834.315 339.779 834.689 339.151 834.939C338.524 835.188 337.88 835.313 337.22 835.313C336.56 835.313 335.917 835.188 335.289 834.939C334.662 834.689 334.099 834.315 333.6 833.817ZM330.703 823.679C329.802 824.58 329.126 825.598 328.676 826.732C328.225 827.867 328 829.021 328 830.196C328 831.37 328.225 832.525 328.676 833.659C329.126 834.794 329.802 835.811 330.703 836.712C331.427 837.436 332.232 838.016 333.117 838.45C334.002 838.885 334.919 839.174 335.868 839.319C336.818 839.464 337.771 839.456 338.728 839.295C339.686 839.134 340.599 838.828 341.468 838.378L346.897 843.807C347.138 844.048 347.404 844.225 347.693 844.338C347.983 844.45 348.285 844.507 348.598 844.507C348.912 844.507 349.214 844.45 349.504 844.338C349.793 844.225 350.059 844.048 350.3 843.807C350.541 843.565 350.718 843.3 350.831 843.01C350.944 842.721 351 842.419 351 842.105C351 841.791 350.944 841.49 350.831 841.2C350.718 840.911 350.541 840.645 350.3 840.404L345.016 835.119C345.579 834.235 345.973 833.285 346.198 832.271C346.424 831.258 346.484 830.244 346.379 829.23C346.275 828.217 346.001 827.231 345.559 826.274C345.116 825.316 344.509 824.451 343.737 823.679C342.835 822.794 341.818 822.126 340.683 821.676C339.549 821.225 338.394 821 337.22 821C336.045 821 334.891 821.225 333.756 821.676C332.622 822.126 331.604 822.794 330.703 823.679Z" fill="white"/>
<g clip-path="url(#clip3_1443_23663)">
<path d="M0 772C0 768.686 2.68629 766 6 766H362C365.314 766 368 768.686 368 772V1438C368 1441.31 365.314 1444 362 1444H6.00001C2.6863 1444 0 1441.31 0 1438V772Z" fill="white"/>
<path d="M0 772C0 768.686 2.68629 766 6 766H362C365.314 766 368 768.686 368 772V796H0V772Z" fill="#D9E4FD"/>
<rect x="134" y="770" width="84" height="21" rx="10.5" fill="white"/>
<path fill-rule="evenodd" clip-rule="evenodd" d="M314.625 776C310.966 776 308 778.966 308 782.625C308 786.284 310.966 789.25 314.625 789.25C318.284 789.25 321.25 786.284 321.25 782.625C321.25 778.966 318.284 776 314.625 776ZM333.554 776C329.895 776 326.929 778.966 326.929 782.625C326.929 786.284 329.895 789.25 333.554 789.25H354.375C358.034 789.25 361 786.284 361 782.625C361 778.966 358.034 776 354.375 776H333.554Z" fill="white"/>
<path fill-rule="evenodd" clip-rule="evenodd" d="M7 782.5C7 778.91 9.91015 776 13.5 776C17.0899 776 20 778.91 20 782.5C20 786.09 17.0899 789 13.5 789C9.91015 789 7 786.09 7 782.5ZM25.5714 782.5C25.5714 778.91 28.4816 776 32.0714 776C35.6613 776 38.5714 778.91 38.5714 782.5C38.5714 786.09 35.6613 789 32.0714 789C28.4816 789 25.5714 786.09 25.5714 782.5ZM50.6429 776C47.053 776 44.1429 778.91 44.1429 782.5C44.1429 786.09 47.053 789 50.6429 789C54.2327 789 57.1429 786.09 57.1429 782.5C57.1429 778.91 54.2327 776 50.6429 776Z" fill="white"/>
<path fill-rule="evenodd" clip-rule="evenodd" d="M0 798C0 796.895 0.895431 796 2 796H184H366C367.105 796 368 796.895 368 798V1442C368 1443.1 367.105 1444 366 1444H2.00001C0.895441 1444 0 1443.1 0 1442V798Z" fill="white"/>
<rect x="18" y="818" width="329" height="226" rx="8" fill="#DFE9FD"/>
<path fill-rule="evenodd" clip-rule="evenodd" d="M199.5 944.111V916.889C199.5 914.75 197.625 913 195.333 913H166.167C163.875 913 162 914.75 162 916.889V944.111C162 946.25 163.875 948 166.167 948H195.333C197.625 948 199.5 946.25 199.5 944.111ZM173.459 933.417L178.667 939.269L185.959 930.5L195.334 942.167H166.167L173.459 933.417Z" fill="white"/>
<path fill-rule="evenodd" clip-rule="evenodd" d="M18 1383C18 1378.58 21.5817 1375 26 1375H337C341.418 1375 345 1378.58 345 1383V1417C345 1421.42 341.418 1425 337 1425H26C21.5817 1425 18 1421.42 18 1417V1383Z" stroke="#7B97F8"/>
<path fill-rule="evenodd" clip-rule="evenodd" d="M18 1324C18 1319.58 21.5817 1316 26 1316H337C341.418 1316 345 1319.58 345 1324V1358C345 1362.42 341.418 1366 337 1366H26C21.5817 1366 18 1362.42 18 1358V1324Z" fill="#7B97F8"/>
<path fill-rule="evenodd" clip-rule="evenodd" d="M19 1074C19 1072.9 19.8954 1072 21 1072H216C217.105 1072 218 1072.9 218 1074V1088C218 1089.1 217.105 1090 216 1090H21C19.8954 1090 19 1089.1 19 1088V1074Z" fill="#DFE9FD"/>
<path fill-rule="evenodd" clip-rule="evenodd" d="M19 1144C19 1142.9 19.8954 1142 21 1142H343C344.105 1142 345 1142.9 345 1144V1158C345 1159.1 344.105 1160 343 1160H21C19.8954 1160 19 1159.1 19 1158V1144Z" fill="#DFE9FD"/>
<path fill-rule="evenodd" clip-rule="evenodd" d="M19 1204C19 1202.9 19.8954 1202 21 1202H343C344.105 1202 345 1202.9 345 1204V1218C345 1219.1 344.105 1220 343 1220H21C19.8954 1220 19 1219.1 19 1218V1204Z" fill="#DFE9FD"/>
<path fill-rule="evenodd" clip-rule="evenodd" d="M19 1104C19 1102.9 19.8954 1102 21 1102H184C185.105 1102 186 1102.9 186 1104V1118C186 1119.1 185.105 1120 184 1120H21C19.8954 1120 19 1119.1 19 1118V1104Z" fill="#DFE9FD"/>
<path fill-rule="evenodd" clip-rule="evenodd" d="M19 1174C19 1172.9 19.8954 1172 21 1172H279C280.105 1172 281 1172.9 281 1174V1188C281 1189.1 280.105 1190 279 1190H21C19.8954 1190 19 1189.1 19 1188V1174Z" fill="#DFE9FD"/>
<path fill-rule="evenodd" clip-rule="evenodd" d="M19 1234C19 1232.9 19.8954 1232 21 1232H279C280.105 1232 281 1232.9 281 1234V1248C281 1249.1 280.105 1250 279 1250H21C19.8954 1250 19 1249.1 19 1248V1234Z" fill="#DFE9FD"/>
</g>
</g>
<g clip-path="url(#clip4_1443_23663)">
<path d="M477 6C477 2.68629 479.686 0 483 0H839C842.314 0 845 2.68629 845 6V672C845 675.314 842.314 678 839 678H483C479.686 678 477 675.314 477 672V6Z" fill="white"/>
<path d="M477 6C477 2.68629 479.686 0 483 0H839C842.314 0 845 2.68629 845 6V30H477V6Z" fill="#D9E4FD"/>
<rect x="611" y="4" width="84" height="21" rx="10.5" fill="#EDF3FE"/>
<path fill-rule="evenodd" clip-rule="evenodd" d="M791.625 10C787.966 10 785 12.9661 785 16.625C785 20.2839 787.966 23.25 791.625 23.25C795.284 23.25 798.25 20.2839 798.25 16.625C798.25 12.9661 795.284 10 791.625 10ZM810.554 10C806.895 10 803.929 12.9661 803.929 16.625C803.929 20.2839 806.895 23.25 810.554 23.25H831.375C835.034 23.25 838 20.2839 838 16.625C838 12.9661 835.034 10 831.375 10H810.554Z" fill="#EDF3FE"/>
<path fill-rule="evenodd" clip-rule="evenodd" d="M484 16.5C484 12.9101 486.91 10 490.5 10C494.09 10 497 12.9101 497 16.5C497 20.0899 494.09 23 490.5 23C486.91 23 484 20.0899 484 16.5ZM502.571 16.5C502.571 12.9101 505.482 10 509.071 10C512.661 10 515.571 12.9101 515.571 16.5C515.571 20.0899 512.661 23 509.071 23C505.482 23 502.571 20.0899 502.571 16.5ZM527.643 10C524.053 10 521.143 12.9101 521.143 16.5C521.143 20.0899 524.053 23 527.643 23C531.233 23 534.143 20.0899 534.143 16.5C534.143 12.9101 531.233 10 527.643 10Z" fill="#EDF3FE"/>
<rect x="495" y="52" width="329" height="240" rx="8" fill="#DFE9FD"/>
<path fill-rule="evenodd" clip-rule="evenodd" d="M679.5 184.111V156.889C679.5 154.75 677.625 153 675.333 153H646.167C643.875 153 642 154.75 642 156.889V184.111C642 186.25 643.875 188 646.167 188H675.333C677.625 188 679.5 186.25 679.5 184.111ZM653.459 173.417L658.667 179.269L665.959 170.5L675.334 182.167H646.167L653.459 173.417Z" fill="white"/>
<rect x="495" y="304" width="103" height="68" rx="8" fill="#DFE9FD"/>
<rect x="609" y="304" width="103" height="68" rx="8" fill="#DFE9FD"/>
<path fill-rule="evenodd" clip-rule="evenodd" d="M565.5 352.111V324.889C565.5 322.75 563.625 321 561.333 321H532.167C529.875 321 528 322.75 528 324.889V352.111C528 354.25 529.875 356 532.167 356H561.333C563.625 356 565.5 354.25 565.5 352.111ZM539.459 341.417L544.667 347.269L551.959 338.5L561.334 350.167H532.167L539.459 341.417Z" fill="white"/>
<path fill-rule="evenodd" clip-rule="evenodd" d="M679.5 352.111V324.889C679.5 322.75 677.625 321 675.333 321H646.167C643.875 321 642 322.75 642 324.889V352.111C642 354.25 643.875 356 646.167 356H675.333C677.625 356 679.5 354.25 679.5 352.111ZM653.459 341.417L658.667 347.269L665.959 338.5L675.334 350.167H646.167L653.459 341.417Z" fill="white"/>
<rect x="723" y="304" width="103" height="68" rx="8" fill="#DFE9FD"/>
<path fill-rule="evenodd" clip-rule="evenodd" d="M502 393C502 391.895 502.895 391 504 391H699C700.105 391 701 391.895 701 393V407C701 408.105 700.105 409 699 409H504C502.895 409 502 408.105 502 407V393Z" fill="#DFE9FD"/>
<path fill-rule="evenodd" clip-rule="evenodd" d="M502 476C502 474.895 502.895 474 504 474H699C700.105 474 701 474.895 701 476V490C701 491.105 700.105 492 699 492H504C502.895 492 502 491.105 502 490V476Z" fill="#DFE9FD"/>
<path fill-rule="evenodd" clip-rule="evenodd" d="M502 423C502 421.895 502.895 421 504 421H667C668.105 421 669 421.895 669 423V437C669 438.105 668.105 439 667 439H504C502.895 439 502 438.105 502 437V423Z" fill="#DFE9FD"/>
<path fill-rule="evenodd" clip-rule="evenodd" d="M502 506C502 504.895 502.895 504 504 504H667C668.105 504 669 504.895 669 506V520C669 521.105 668.105 522 667 522H504C502.895 522 502 521.105 502 520V506Z" fill="#DFE9FD"/>
<path fill-rule="evenodd" clip-rule="evenodd" d="M502 536C502 534.895 502.895 534 504 534H656C657.105 534 658 534.895 658 536V550C658 551.105 657.105 552 656 552H504C502.895 552 502 551.105 502 550V536Z" fill="#DFE9FD"/>
<path fill-rule="evenodd" clip-rule="evenodd" d="M793.5 352.111V324.889C793.5 322.75 791.625 321 789.333 321H760.167C757.875 321 756 322.75 756 324.889V352.111C756 354.25 757.875 356 760.167 356H789.333C791.625 356 793.5 354.25 793.5 352.111ZM767.459 341.417L772.667 347.269L779.959 338.5L789.334 350.167H760.167L767.459 341.417Z" fill="white"/>
<path fill-rule="evenodd" clip-rule="evenodd" d="M774 394C774 392.895 774.895 392 776 392H815C816.105 392 817 392.895 817 394V408C817 409.105 816.105 410 815 410H776C774.895 410 774 409.105 774 408V394Z" fill="#DFE9FD"/>
<path fill-rule="evenodd" clip-rule="evenodd" d="M495 617C495 612.582 498.582 609 503 609H761C765.418 609 769 612.582 769 617V651C769 655.418 765.418 659 761 659H503C498.582 659 495 655.418 495 651V617Z" fill="#7B97F8"/>
<path d="M819 634.144L804 649L789 634.144C788.011 633.181 787.231 632.024 786.711 630.745C786.191 629.467 785.941 628.094 785.977 626.714C786.014 625.334 786.336 623.976 786.922 622.727C787.509 621.477 788.348 620.362 789.387 619.453C790.426 618.544 791.641 617.859 792.958 617.443C794.274 617.027 795.662 616.887 797.035 617.034C798.407 617.18 799.735 617.609 800.934 618.294C802.132 618.978 803.176 619.904 804 621.012C804.827 619.912 805.872 618.995 807.07 618.317C808.268 617.64 809.593 617.217 810.962 617.075C812.331 616.933 813.714 617.075 815.026 617.493C816.337 617.91 817.548 618.594 818.583 619.501C819.618 620.408 820.455 621.519 821.041 622.764C821.627 624.009 821.949 625.362 821.989 626.737C822.028 628.113 821.783 629.482 821.268 630.758C820.754 632.035 819.982 633.192 819 634.156" stroke="#DFE9FD" stroke-width="4" stroke-linecap="round" stroke-linejoin="round"/>
<g clip-path="url(#clip5_1443_23663)">
<path d="M477 6C477 2.68629 479.686 0 483 0H839C842.314 0 845 2.68629 845 6V672C845 675.314 842.314 678 839 678H483C479.686 678 477 675.314 477 672V6Z" fill="white"/>
<path d="M477 6C477 2.68629 479.686 0 483 0H839C842.314 0 845 2.68629 845 6V30H477V6Z" fill="#D9E4FD"/>
<rect x="611" y="4" width="84" height="21" rx="10.5" fill="#EDF3FE"/>
<path fill-rule="evenodd" clip-rule="evenodd" d="M791.625 10C787.966 10 785 12.9661 785 16.625C785 20.2839 787.966 23.25 791.625 23.25C795.284 23.25 798.25 20.2839 798.25 16.625C798.25 12.9661 795.284 10 791.625 10ZM810.554 10C806.895 10 803.929 12.9661 803.929 16.625C803.929 20.2839 806.895 23.25 810.554 23.25H831.375C835.034 23.25 838 20.2839 838 16.625C838 12.9661 835.034 10 831.375 10H810.554Z" fill="#EDF3FE"/>
<path fill-rule="evenodd" clip-rule="evenodd" d="M484 16.5C484 12.9101 486.91 10 490.5 10C494.09 10 497 12.9101 497 16.5C497 20.0899 494.09 23 490.5 23C486.91 23 484 20.0899 484 16.5ZM502.571 16.5C502.571 12.9101 505.482 10 509.071 10C512.661 10 515.571 12.9101 515.571 16.5C515.571 20.0899 512.661 23 509.071 23C505.482 23 502.571 20.0899 502.571 16.5ZM527.643 10C524.053 10 521.143 12.9101 521.143 16.5C521.143 20.0899 524.053 23 527.643 23C531.233 23 534.143 20.0899 534.143 16.5C534.143 12.9101 531.233 10 527.643 10Z" fill="#EDF3FE"/>
<path fill-rule="evenodd" clip-rule="evenodd" d="M488 276C488 271.582 491.582 268 496 268H825C829.418 268 833 271.582 833 276V446C833 450.418 829.418 454 825 454H496C491.582 454 488 450.418 488 446V276Z" fill="#EDF3FE"/>
<path fill-rule="evenodd" clip-rule="evenodd" d="M503 395C503 393.895 503.895 393 505 393H647C648.105 393 649 393.895 649 395V409C649 410.105 648.105 411 647 411H505C503.895 411 503 410.105 503 409V395Z" fill="#DFE9FD"/>
<path fill-rule="evenodd" clip-rule="evenodd" d="M503 425C503 423.895 503.895 423 505 423H633C634.105 423 635 423.895 635 425V439C635 440.105 634.105 441 633 441H505C503.895 441 503 440.105 503 439V425Z" fill="#DFE9FD"/>
<rect x="503" y="280" width="315" height="101" rx="8" fill="#DFE9FD"/>
<path fill-rule="evenodd" clip-rule="evenodd" d="M679.5 344.111V316.889C679.5 314.75 677.625 313 675.333 313H646.167C643.875 313 642 314.75 642 316.889V344.111C642 346.25 643.875 348 646.167 348H675.333C677.625 348 679.5 346.25 679.5 344.111ZM653.459 333.417L658.667 339.269L665.959 330.5L675.334 342.167H646.167L653.459 333.417Z" fill="white"/>
<path fill-rule="evenodd" clip-rule="evenodd" d="M705 401C705 396.582 708.582 393 713 393H810C814.418 393 818 396.582 818 401V436C818 440.418 814.418 444 810 444H713C708.582 444 705 440.418 705 436V401Z" fill="#7B97F8"/>
<path fill-rule="evenodd" clip-rule="evenodd" d="M488 470C488 465.582 491.582 462 496 462H825C829.418 462 833 465.582 833 470V640C833 644.418 829.418 648 825 648H496C491.582 648 488 644.418 488 640V470Z" fill="#EDF3FE"/>
<path fill-rule="evenodd" clip-rule="evenodd" d="M503 589C503 587.895 503.895 587 505 587H647C648.105 587 649 587.895 649 589V603C649 604.105 648.105 605 647 605H505C503.895 605 503 604.105 503 603V589Z" fill="#DFE9FD"/>
<path fill-rule="evenodd" clip-rule="evenodd" d="M503 619C503 617.895 503.895 617 505 617H633C634.105 617 635 617.895 635 619V633C635 634.105 634.105 635 633 635H505C503.895 635 503 634.105 503 633V619Z" fill="#DFE9FD"/>
<rect x="503" y="474" width="315" height="101" rx="8" fill="#DFE9FD"/>
<path fill-rule="evenodd" clip-rule="evenodd" d="M679.5 538.111V510.889C679.5 508.75 677.625 507 675.333 507H646.167C643.875 507 642 508.75 642 510.889V538.111C642 540.25 643.875 542 646.167 542H675.333C677.625 542 679.5 540.25 679.5 538.111ZM653.459 527.417L658.667 533.269L665.959 524.5L675.334 536.167H646.167L653.459 527.417Z" fill="white"/>
<path fill-rule="evenodd" clip-rule="evenodd" d="M705 595C705 590.582 708.582 587 713 587H810C814.418 587 818 590.582 818 595V630C818 634.418 814.418 638 810 638H713C708.582 638 705 634.418 705 630V595Z" fill="#7B97F8"/>
<path fill-rule="evenodd" clip-rule="evenodd" d="M488 83C488 78.5817 491.582 75 496 75H825C829.418 75 833 78.5817 833 83V253C833 257.418 829.418 261 825 261H496C491.582 261 488 257.418 488 253V83Z" fill="#EDF3FE"/>
<path fill-rule="evenodd" clip-rule="evenodd" d="M503 202C503 200.895 503.895 200 505 200H647C648.105 200 649 200.895 649 202V216C649 217.105 648.105 218 647 218H505C503.895 218 503 217.105 503 216V202Z" fill="#DFE9FD"/>
<path fill-rule="evenodd" clip-rule="evenodd" d="M503 232C503 230.895 503.895 230 505 230H633C634.105 230 635 230.895 635 232V246C635 247.105 634.105 248 633 248H505C503.895 248 503 247.105 503 246V232Z" fill="#DFE9FD"/>
<rect x="503" y="87" width="315" height="101" rx="8" fill="#DFE9FD"/>
<path fill-rule="evenodd" clip-rule="evenodd" d="M679.5 151.111V123.889C679.5 121.75 677.625 120 675.333 120H646.167C643.875 120 642 121.75 642 123.889V151.111C642 153.25 643.875 155 646.167 155H675.333C677.625 155 679.5 153.25 679.5 151.111ZM653.459 140.417L658.667 146.269L665.959 137.5L675.334 149.167H646.167L653.459 140.417Z" fill="white"/>
<path fill-rule="evenodd" clip-rule="evenodd" d="M705 208C705 203.582 708.582 200 713 200H810C814.418 200 818 203.582 818 208V243C818 247.418 814.418 251 810 251H713C708.582 251 705 247.418 705 243V208Z" fill="#7B97F8"/>
<path fill-rule="evenodd" clip-rule="evenodd" d="M477 620C477 615.582 480.582 612 485 612H837C841.418 612 845 615.582 845 620V670C845 674.418 841.418 678 837 678H485C480.582 678 477 674.418 477 670V620Z" fill="#DFE9FD"/>
<path fill-rule="evenodd" clip-rule="evenodd" d="M547.381 655.375V634.047C547.381 632.371 545.912 631 544.116 631H521.265C519.469 631 518 632.371 518 634.047V655.375C518 657.051 519.469 658.422 521.265 658.422H544.116C545.912 658.422 547.381 657.051 547.381 655.375ZM526.978 646.996L531.058 651.582L536.771 644.711L544.116 653.852H521.265L526.978 646.996Z" fill="white"/>
<path fill-rule="evenodd" clip-rule="evenodd" d="M624.381 655.375V634.047C624.381 632.371 622.912 631 621.116 631H598.265C596.469 631 595 632.371 595 634.047V655.375C595 657.051 596.469 658.422 598.265 658.422H621.116C622.912 658.422 624.381 657.051 624.381 655.375ZM603.978 646.996L608.058 651.582L613.771 644.711L621.116 653.852H598.265L603.978 646.996Z" fill="white"/>
<path fill-rule="evenodd" clip-rule="evenodd" d="M709.381 655.375V634.047C709.381 632.371 707.912 631 706.116 631H683.265C681.469 631 680 632.371 680 634.047V655.375C680 657.051 681.469 658.422 683.265 658.422H706.116C707.912 658.422 709.381 657.051 709.381 655.375ZM688.978 646.996L693.058 651.582L698.771 644.711L706.116 653.852H683.265L688.978 646.996Z" fill="white"/>
<path fill-rule="evenodd" clip-rule="evenodd" d="M794.381 655.375V634.047C794.381 632.371 792.912 631 791.116 631H768.265C766.469 631 765 632.371 765 634.047V655.375C765 657.051 766.469 658.422 768.265 658.422H791.116C792.912 658.422 794.381 657.051 794.381 655.375ZM773.978 646.996L778.058 651.582L783.771 644.711L791.116 653.852H768.265L773.978 646.996Z" fill="white"/>
<path d="M489.438 61V49.7266H493.305C496.648 49.7266 498.625 51.8125 498.625 55.3516V55.3672C498.625 58.9141 496.656 61 493.305 61H489.438ZM490.844 59.7344H493.211C495.727 59.7344 497.188 58.125 497.188 55.3828V55.3672C497.188 52.6172 495.711 50.9922 493.211 50.9922H490.844V59.7344ZM501.609 50.9531C501.094 50.9531 500.672 50.5312 500.672 50.0156C500.672 49.5 501.094 49.0781 501.609 49.0781C502.125 49.0781 502.547 49.5 502.547 50.0156C502.547 50.5312 502.125 50.9531 501.609 50.9531ZM500.922 61V52.5781H502.281V61H500.922ZM507.734 61.1484C505.859 61.1484 504.57 60.2422 504.414 58.8516H505.805C506.031 59.5547 506.703 60.0156 507.781 60.0156C508.914 60.0156 509.719 59.4766 509.719 58.7109V58.6953C509.719 58.125 509.289 57.7266 508.25 57.4766L506.945 57.1641C505.367 56.7891 504.656 56.1016 504.656 54.8906V54.8828C504.656 53.4844 506 52.4297 507.789 52.4297C509.555 52.4297 510.781 53.3125 510.969 54.6875H509.633C509.453 54.0234 508.797 53.5625 507.781 53.5625C506.781 53.5625 506.047 54.0781 506.047 54.8203V54.8359C506.047 55.4062 506.469 55.7656 507.461 56.0078L508.758 56.3203C510.344 56.7031 511.109 57.3906 511.109 58.5938V58.6094C511.109 60.1094 509.648 61.1484 507.734 61.1484ZM516.664 61.1484C514.305 61.1484 512.797 59.4375 512.797 56.7656V56.75C512.797 54.1328 514.297 52.4297 516.656 52.4297C518.703 52.4297 519.93 53.6094 520.18 55.1094L520.188 55.1562H518.836L518.828 55.1328C518.617 54.3047 517.867 53.6328 516.656 53.6328C515.141 53.6328 514.188 54.8516 514.188 56.75V56.7656C514.188 58.7031 515.156 59.9453 516.656 59.9453C517.789 59.9453 518.508 59.4453 518.82 58.5078L518.836 58.4609L520.18 58.4531L520.164 58.5391C519.82 60.0625 518.688 61.1484 516.664 61.1484ZM525.633 61.1484C523.234 61.1484 521.75 59.4922 521.75 56.7969V56.7812C521.75 54.0781 523.234 52.4297 525.633 52.4297C528.031 52.4297 529.516 54.0781 529.516 56.7812V56.7969C529.516 59.4922 528.031 61.1484 525.633 61.1484ZM525.633 59.9453C527.227 59.9453 528.125 58.7812 528.125 56.7969V56.7812C528.125 54.7891 527.227 53.6328 525.633 53.6328C524.039 53.6328 523.141 54.7891 523.141 56.7812V56.7969C523.141 58.7812 524.039 59.9453 525.633 59.9453ZM533.695 61L530.578 52.5781H532.016L534.32 59.5156H534.445L536.75 52.5781H538.188L535.07 61H533.695ZM543.109 61.1484C540.703 61.1484 539.25 59.4609 539.25 56.8203V56.8125C539.25 54.2109 540.734 52.4297 543.023 52.4297C545.312 52.4297 546.703 54.1328 546.703 56.6484V57.1797H540.641C540.68 58.9219 541.641 59.9375 543.141 59.9375C544.281 59.9375 544.984 59.3984 545.211 58.8906L545.242 58.8203H546.602L546.586 58.8828C546.297 60.0234 545.094 61.1484 543.109 61.1484ZM543.016 53.6406C541.766 53.6406 540.812 54.4922 540.664 56.0938H545.32C545.18 54.4297 544.258 53.6406 543.016 53.6406ZM548.812 61V52.5781H550.172V53.8281H550.297C550.617 52.9453 551.406 52.4297 552.547 52.4297C552.805 52.4297 553.094 52.4609 553.227 52.4844V53.8047C552.945 53.7578 552.688 53.7266 552.391 53.7266C551.094 53.7266 550.172 54.5469 550.172 55.7812V61H548.812Z" fill="black"/>
</g>
</g>
<g clip-path="url(#clip6_1443_23663)">
<path d="M477 772C477 768.686 479.686 766 483 766H839C842.314 766 845 768.686 845 772V1438C845 1441.31 842.314 1444 839 1444H483C479.686 1444 477 1441.31 477 1438V772Z" fill="white"/>
<path d="M477 772C477 768.686 479.686 766 483 766H839C842.314 766 845 768.686 845 772V796H477V772Z" fill="#D9E4FD"/>
<rect x="611" y="770" width="84" height="21" rx="10.5" fill="#EDF3FE"/>
<path fill-rule="evenodd" clip-rule="evenodd" d="M791.625 776C787.966 776 785 778.966 785 782.625C785 786.284 787.966 789.25 791.625 789.25C795.284 789.25 798.25 786.284 798.25 782.625C798.25 778.966 795.284 776 791.625 776ZM810.554 776C806.895 776 803.929 778.966 803.929 782.625C803.929 786.284 806.895 789.25 810.554 789.25H831.375C835.034 789.25 838 786.284 838 782.625C838 778.966 835.034 776 831.375 776H810.554Z" fill="#EDF3FE"/>
<path fill-rule="evenodd" clip-rule="evenodd" d="M484 782.5C484 778.91 486.91 776 490.5 776C494.09 776 497 778.91 497 782.5C497 786.09 494.09 789 490.5 789C486.91 789 484 786.09 484 782.5ZM502.571 782.5C502.571 778.91 505.482 776 509.071 776C512.661 776 515.571 778.91 515.571 782.5C515.571 786.09 512.661 789 509.071 789C505.482 789 502.571 786.09 502.571 782.5ZM527.643 776C524.053 776 521.143 778.91 521.143 782.5C521.143 786.09 524.053 789 527.643 789C531.233 789 534.143 786.09 534.143 782.5C534.143 778.91 531.233 776 527.643 776Z" fill="#EDF3FE"/>
<rect x="495" y="818" width="329" height="240" rx="8" fill="#DFE9FD"/>
<path fill-rule="evenodd" clip-rule="evenodd" d="M679.5 950.111V922.889C679.5 920.75 677.625 919 675.333 919H646.167C643.875 919 642 920.75 642 922.889V950.111C642 952.25 643.875 954 646.167 954H675.333C677.625 954 679.5 952.25 679.5 950.111ZM653.459 939.417L658.667 945.269L665.959 936.5L675.334 948.167H646.167L653.459 939.417Z" fill="white"/>
<rect x="495" y="1070" width="103" height="68" rx="8" fill="#DFE9FD"/>
<rect x="609" y="1070" width="103" height="68" rx="8" fill="#DFE9FD"/>
<path fill-rule="evenodd" clip-rule="evenodd" d="M565.5 1118.11V1090.89C565.5 1088.75 563.625 1087 561.333 1087H532.167C529.875 1087 528 1088.75 528 1090.89V1118.11C528 1120.25 529.875 1122 532.167 1122H561.333C563.625 1122 565.5 1120.25 565.5 1118.11ZM539.459 1107.42L544.667 1113.27L551.959 1104.5L561.334 1116.17H532.167L539.459 1107.42Z" fill="white"/>
<path fill-rule="evenodd" clip-rule="evenodd" d="M679.5 1118.11V1090.89C679.5 1088.75 677.625 1087 675.333 1087H646.167C643.875 1087 642 1088.75 642 1090.89V1118.11C642 1120.25 643.875 1122 646.167 1122H675.333C677.625 1122 679.5 1120.25 679.5 1118.11ZM653.459 1107.42L658.667 1113.27L665.959 1104.5L675.334 1116.17H646.167L653.459 1107.42Z" fill="white"/>
<rect x="723" y="1070" width="103" height="68" rx="8" fill="#DFE9FD"/>
<path fill-rule="evenodd" clip-rule="evenodd" d="M502 1159C502 1157.9 502.895 1157 504 1157H699C700.105 1157 701 1157.9 701 1159V1173C701 1174.1 700.105 1175 699 1175H504C502.895 1175 502 1174.1 502 1173V1159Z" fill="#DFE9FD"/>
<path fill-rule="evenodd" clip-rule="evenodd" d="M502 1242C502 1240.9 502.895 1240 504 1240H699C700.105 1240 701 1240.9 701 1242V1256C701 1257.1 700.105 1258 699 1258H504C502.895 1258 502 1257.1 502 1256V1242Z" fill="#DFE9FD"/>
<path fill-rule="evenodd" clip-rule="evenodd" d="M502 1189C502 1187.9 502.895 1187 504 1187H667C668.105 1187 669 1187.9 669 1189V1203C669 1204.1 668.105 1205 667 1205H504C502.895 1205 502 1204.1 502 1203V1189Z" fill="#DFE9FD"/>
<path fill-rule="evenodd" clip-rule="evenodd" d="M502 1272C502 1270.9 502.895 1270 504 1270H667C668.105 1270 669 1270.9 669 1272V1286C669 1287.1 668.105 1288 667 1288H504C502.895 1288 502 1287.1 502 1286V1272Z" fill="#DFE9FD"/>
<path fill-rule="evenodd" clip-rule="evenodd" d="M502 1302C502 1300.9 502.895 1300 504 1300H656C657.105 1300 658 1300.9 658 1302V1316C658 1317.1 657.105 1318 656 1318H504C502.895 1318 502 1317.1 502 1316V1302Z" fill="#DFE9FD"/>
<path fill-rule="evenodd" clip-rule="evenodd" d="M793.5 1118.11V1090.89C793.5 1088.75 791.625 1087 789.333 1087H760.167C757.875 1087 756 1088.75 756 1090.89V1118.11C756 1120.25 757.875 1122 760.167 1122H789.333C791.625 1122 793.5 1120.25 793.5 1118.11ZM767.459 1107.42L772.667 1113.27L779.959 1104.5L789.334 1116.17H760.167L767.459 1107.42Z" fill="white"/>
<path fill-rule="evenodd" clip-rule="evenodd" d="M774 1160C774 1158.9 774.895 1158 776 1158H815C816.105 1158 817 1158.9 817 1160V1174C817 1175.1 816.105 1176 815 1176H776C774.895 1176 774 1175.1 774 1174V1160Z" fill="#DFE9FD"/>
<path fill-rule="evenodd" clip-rule="evenodd" d="M495 1383C495 1378.58 498.582 1375 503 1375H761C765.418 1375 769 1378.58 769 1383V1417C769 1421.42 765.418 1425 761 1425H503C498.582 1425 495 1421.42 495 1417V1383Z" fill="#7B97F8"/>
<path d="M819 1400.14L804 1415L789 1400.14C788.011 1399.18 787.231 1398.02 786.711 1396.75C786.191 1395.47 785.941 1394.09 785.977 1392.71C786.014 1391.33 786.336 1389.98 786.922 1388.73C787.509 1387.48 788.348 1386.36 789.387 1385.45C790.426 1384.54 791.641 1383.86 792.958 1383.44C794.274 1383.03 795.662 1382.89 797.035 1383.03C798.407 1383.18 799.735 1383.61 800.934 1384.29C802.132 1384.98 803.176 1385.9 804 1387.01C804.827 1385.91 805.872 1384.99 807.07 1384.32C808.268 1383.64 809.593 1383.22 810.962 1383.08C812.331 1382.93 813.714 1383.08 815.026 1383.49C816.337 1383.91 817.548 1384.59 818.583 1385.5C819.618 1386.41 820.455 1387.52 821.041 1388.76C821.627 1390.01 821.949 1391.36 821.989 1392.74C822.028 1394.11 821.783 1395.48 821.268 1396.76C820.754 1398.04 819.982 1399.19 819 1400.16" stroke="#DFE9FD" stroke-width="4" stroke-linecap="round" stroke-linejoin="round"/>
<g clip-path="url(#clip7_1443_23663)">
<path d="M477 772C477 768.686 479.686 766 483 766H839C842.314 766 845 768.686 845 772V1438C845 1441.31 842.314 1444 839 1444H483C479.686 1444 477 1441.31 477 1438V772Z" fill="white"/>
<path d="M477 772C477 768.686 479.686 766 483 766H839C842.314 766 845 768.686 845 772V796H477V772Z" fill="#D9E4FD"/>
<rect x="611" y="770" width="84" height="21" rx="10.5" fill="#EDF3FE"/>
<path fill-rule="evenodd" clip-rule="evenodd" d="M791.625 776C787.966 776 785 778.966 785 782.625C785 786.284 787.966 789.25 791.625 789.25C795.284 789.25 798.25 786.284 798.25 782.625C798.25 778.966 795.284 776 791.625 776ZM810.554 776C806.895 776 803.929 778.966 803.929 782.625C803.929 786.284 806.895 789.25 810.554 789.25H831.375C835.034 789.25 838 786.284 838 782.625C838 778.966 835.034 776 831.375 776H810.554Z" fill="#EDF3FE"/>
<path fill-rule="evenodd" clip-rule="evenodd" d="M484 782.5C484 778.91 486.91 776 490.5 776C494.09 776 497 778.91 497 782.5C497 786.09 494.09 789 490.5 789C486.91 789 484 786.09 484 782.5ZM502.571 782.5C502.571 778.91 505.482 776 509.071 776C512.661 776 515.571 778.91 515.571 782.5C515.571 786.09 512.661 789 509.071 789C505.482 789 502.571 786.09 502.571 782.5ZM527.643 776C524.053 776 521.143 778.91 521.143 782.5C521.143 786.09 524.053 789 527.643 789C531.233 789 534.143 786.09 534.143 782.5C534.143 778.91 531.233 776 527.643 776Z" fill="#EDF3FE"/>
<path fill-rule="evenodd" clip-rule="evenodd" d="M477 1386C477 1381.58 480.582 1378 485 1378H837C841.418 1378 845 1381.58 845 1386V1436C845 1440.42 841.418 1444 837 1444H485C480.582 1444 477 1440.42 477 1436V1386Z" fill="#DFE9FD"/>
<path fill-rule="evenodd" clip-rule="evenodd" d="M547.381 1421.38V1400.05C547.381 1398.37 545.912 1397 544.116 1397H521.265C519.469 1397 518 1398.37 518 1400.05V1421.38C518 1423.05 519.469 1424.42 521.265 1424.42H544.116C545.912 1424.42 547.381 1423.05 547.381 1421.38ZM526.978 1413L531.058 1417.58L536.771 1410.71L544.116 1419.85H521.265L526.978 1413Z" fill="white"/>
<path fill-rule="evenodd" clip-rule="evenodd" d="M624.381 1421.38V1400.05C624.381 1398.37 622.912 1397 621.116 1397H598.265C596.469 1397 595 1398.37 595 1400.05V1421.38C595 1423.05 596.469 1424.42 598.265 1424.42H621.116C622.912 1424.42 624.381 1423.05 624.381 1421.38ZM603.978 1413L608.058 1417.58L613.771 1410.71L621.116 1419.85H598.265L603.978 1413Z" fill="white"/>
<path fill-rule="evenodd" clip-rule="evenodd" d="M709.381 1421.38V1400.05C709.381 1398.37 707.912 1397 706.116 1397H683.265C681.469 1397 680 1398.37 680 1400.05V1421.38C680 1423.05 681.469 1424.42 683.265 1424.42H706.116C707.912 1424.42 709.381 1423.05 709.381 1421.38ZM688.978 1413L693.058 1417.58L698.771 1410.71L706.116 1419.85H683.265L688.978 1413Z" fill="white"/>
<path fill-rule="evenodd" clip-rule="evenodd" d="M794.381 1421.38V1400.05C794.381 1398.37 792.912 1397 791.116 1397H768.265C766.469 1397 765 1398.37 765 1400.05V1421.38C765 1423.05 766.469 1424.42 768.265 1424.42H791.116C792.912 1424.42 794.381 1423.05 794.381 1421.38ZM773.978 1413L778.058 1417.58L783.771 1410.71L791.116 1419.85H768.265L773.978 1413Z" fill="white"/>
<path d="M493.133 827.266C490.664 827.266 489.07 825.969 488.906 824.133L488.898 824.047H490.305L490.312 824.133C490.414 825.258 491.586 825.969 493.211 825.969C494.742 825.969 495.859 825.18 495.859 824.031V824.023C495.859 823.086 495.211 822.445 493.664 822.102L492.414 821.828C490.156 821.328 489.18 820.289 489.18 818.656V818.648C489.188 816.781 490.82 815.461 493.148 815.461C495.398 815.461 496.969 816.789 497.086 818.469L497.094 818.578H495.688L495.672 818.477C495.516 817.484 494.578 816.75 493.109 816.758C491.703 816.766 490.617 817.43 490.617 818.609V818.617C490.617 819.516 491.234 820.125 492.766 820.461L494.016 820.742C496.367 821.266 497.297 822.211 497.297 823.836V823.844C497.297 825.953 495.648 827.266 493.133 827.266ZM502.906 827.148C500.5 827.148 499.047 825.461 499.047 822.82V822.812C499.047 820.211 500.531 818.43 502.82 818.43C505.109 818.43 506.5 820.133 506.5 822.648V823.18H500.438C500.477 824.922 501.438 825.938 502.938 825.938C504.078 825.938 504.781 825.398 505.008 824.891L505.039 824.82H506.398L506.383 824.883C506.094 826.023 504.891 827.148 502.906 827.148ZM502.812 819.641C501.562 819.641 500.609 820.492 500.461 822.094H505.117C504.977 820.43 504.055 819.641 502.812 819.641ZM508.609 827V818.578H509.969V819.828H510.094C510.414 818.945 511.203 818.43 512.344 818.43C512.602 818.43 512.891 818.461 513.023 818.484V819.805C512.742 819.758 512.484 819.727 512.188 819.727C510.891 819.727 509.969 820.547 509.969 821.781V827H508.609ZM517.164 827L514.047 818.578H515.484L517.789 825.516H517.914L520.219 818.578H521.656L518.539 827H517.164ZM524.172 816.953C523.656 816.953 523.234 816.531 523.234 816.016C523.234 815.5 523.656 815.078 524.172 815.078C524.688 815.078 525.109 815.5 525.109 816.016C525.109 816.531 524.688 816.953 524.172 816.953ZM523.484 827V818.578H524.844V827H523.484ZM530.852 827.148C528.492 827.148 526.984 825.438 526.984 822.766V822.75C526.984 820.133 528.484 818.43 530.844 818.43C532.891 818.43 534.117 819.609 534.367 821.109L534.375 821.156H533.023L533.016 821.133C532.805 820.305 532.055 819.633 530.844 819.633C529.328 819.633 528.375 820.852 528.375 822.75V822.766C528.375 824.703 529.344 825.945 530.844 825.945C531.977 825.945 532.695 825.445 533.008 824.508L533.023 824.461L534.367 824.453L534.352 824.539C534.008 826.062 532.875 827.148 530.852 827.148ZM539.797 827.148C537.391 827.148 535.938 825.461 535.938 822.82V822.812C535.938 820.211 537.422 818.43 539.711 818.43C542 818.43 543.391 820.133 543.391 822.648V823.18H537.328C537.367 824.922 538.328 825.938 539.828 825.938C540.969 825.938 541.672 825.398 541.898 824.891L541.93 824.82H543.289L543.273 824.883C542.984 826.023 541.781 827.148 539.797 827.148ZM539.703 819.641C538.453 819.641 537.5 820.492 537.352 822.094H542.008C541.867 820.43 540.945 819.641 539.703 819.641ZM548.391 827.148C546.516 827.148 545.227 826.242 545.07 824.852H546.461C546.688 825.555 547.359 826.016 548.438 826.016C549.57 826.016 550.375 825.477 550.375 824.711V824.695C550.375 824.125 549.945 823.727 548.906 823.477L547.602 823.164C546.023 822.789 545.312 822.102 545.312 820.891V820.883C545.312 819.484 546.656 818.43 548.445 818.43C550.211 818.43 551.438 819.312 551.625 820.688H550.289C550.109 820.023 549.453 819.562 548.438 819.562C547.438 819.562 546.703 820.078 546.703 820.82V820.836C546.703 821.406 547.125 821.766 548.117 822.008L549.414 822.32C551 822.703 551.766 823.391 551.766 824.594V824.609C551.766 826.109 550.305 827.148 548.391 827.148Z" fill="black"/>
<path fill-rule="evenodd" clip-rule="evenodd" d="M481 961C481 959.895 481.895 959 483 959H593C594.105 959 595 959.895 595 961V975C595 976.105 594.105 977 593 977H483C481.895 977 481 976.105 481 975V961Z" fill="#DFE9FD"/>
<path fill-rule="evenodd" clip-rule="evenodd" d="M481 983C481 981.895 481.895 981 483 981H571C572.105 981 573 981.895 573 983V997C573 998.105 572.105 999 571 999H483C481.895 999 481 998.105 481 997V983Z" fill="#DFE9FD"/>
<rect x="481" y="846" width="172" height="101" rx="8" fill="#DFE9FD"/>
<path fill-rule="evenodd" clip-rule="evenodd" d="M580.5 910.111V882.889C580.5 880.75 578.625 879 576.333 879H547.167C544.875 879 543 880.75 543 882.889V910.111C543 912.25 544.875 914 547.167 914H576.333C578.625 914 580.5 912.25 580.5 910.111ZM554.459 899.417L559.667 905.269L566.959 896.5L576.334 908.167H547.167L554.459 899.417Z" fill="white"/>
<path fill-rule="evenodd" clip-rule="evenodd" d="M609 967C609 962.582 612.582 959 617 959H641C645.418 959 649 962.582 649 967V991C649 995.418 645.418 999 641 999H617C612.582 999 609 995.418 609 991V967Z" fill="#7B97F8"/>
<path fill-rule="evenodd" clip-rule="evenodd" d="M481 1138C481 1136.9 481.895 1136 483 1136H593C594.105 1136 595 1136.9 595 1138V1152C595 1153.1 594.105 1154 593 1154H483C481.895 1154 481 1153.1 481 1152V1138Z" fill="#DFE9FD"/>
<path fill-rule="evenodd" clip-rule="evenodd" d="M481 1160C481 1158.9 481.895 1158 483 1158H571C572.105 1158 573 1158.9 573 1160V1174C573 1175.1 572.105 1176 571 1176H483C481.895 1176 481 1175.1 481 1174V1160Z" fill="#DFE9FD"/>
<rect x="481" y="1023" width="172" height="101" rx="8" fill="#DFE9FD"/>
<path fill-rule="evenodd" clip-rule="evenodd" d="M580.5 1087.11V1059.89C580.5 1057.75 578.625 1056 576.333 1056H547.167C544.875 1056 543 1057.75 543 1059.89V1087.11C543 1089.25 544.875 1091 547.167 1091H576.333C578.625 1091 580.5 1089.25 580.5 1087.11ZM554.459 1076.42L559.667 1082.27L566.959 1073.5L576.334 1085.17H547.167L554.459 1076.42Z" fill="white"/>
<path fill-rule="evenodd" clip-rule="evenodd" d="M609 1144C609 1139.58 612.582 1136 617 1136H641C645.418 1136 649 1139.58 649 1144V1168C649 1172.42 645.418 1176 641 1176H617C612.582 1176 609 1172.42 609 1168V1144Z" fill="#7B97F8"/>
<path fill-rule="evenodd" clip-rule="evenodd" d="M481 1315C481 1313.9 481.895 1313 483 1313H593C594.105 1313 595 1313.9 595 1315V1329C595 1330.1 594.105 1331 593 1331H483C481.895 1331 481 1330.1 481 1329V1315Z" fill="#DFE9FD"/>
<path fill-rule="evenodd" clip-rule="evenodd" d="M481 1337C481 1335.9 481.895 1335 483 1335H571C572.105 1335 573 1335.9 573 1337V1351C573 1352.1 572.105 1353 571 1353H483C481.895 1353 481 1352.1 481 1351V1337Z" fill="#DFE9FD"/>
<rect x="481" y="1200" width="172" height="101" rx="8" fill="#DFE9FD"/>
<path fill-rule="evenodd" clip-rule="evenodd" d="M580.5 1264.11V1236.89C580.5 1234.75 578.625 1233 576.333 1233H547.167C544.875 1233 543 1234.75 543 1236.89V1264.11C543 1266.25 544.875 1268 547.167 1268H576.333C578.625 1268 580.5 1266.25 580.5 1264.11ZM554.459 1253.42L559.667 1259.27L566.959 1250.5L576.334 1262.17H547.167L554.459 1253.42Z" fill="white"/>
<path fill-rule="evenodd" clip-rule="evenodd" d="M609 1321C609 1316.58 612.582 1313 617 1313H641C645.418 1313 649 1316.58 649 1321V1345C649 1349.42 645.418 1353 641 1353H617C612.582 1353 609 1349.42 609 1345V1321Z" fill="#7B97F8"/>
<path fill-rule="evenodd" clip-rule="evenodd" d="M666 961C666 959.895 666.895 959 668 959H778C779.105 959 780 959.895 780 961V975C780 976.105 779.105 977 778 977H668C666.895 977 666 976.105 666 975V961Z" fill="#DFE9FD"/>
<path fill-rule="evenodd" clip-rule="evenodd" d="M666 983C666 981.895 666.895 981 668 981H756C757.105 981 758 981.895 758 983V997C758 998.105 757.105 999 756 999H668C666.895 999 666 998.105 666 997V983Z" fill="#DFE9FD"/>
<rect x="666" y="846" width="172" height="101" rx="8" fill="#DFE9FD"/>
<path fill-rule="evenodd" clip-rule="evenodd" d="M765.5 910.111V882.889C765.5 880.75 763.625 879 761.333 879H732.167C729.875 879 728 880.75 728 882.889V910.111C728 912.25 729.875 914 732.167 914H761.333C763.625 914 765.5 912.25 765.5 910.111ZM739.459 899.417L744.667 905.269L751.959 896.5L761.334 908.167H732.167L739.459 899.417Z" fill="white"/>
<path fill-rule="evenodd" clip-rule="evenodd" d="M794 967C794 962.582 797.582 959 802 959H826C830.418 959 834 962.582 834 967V991C834 995.418 830.418 999 826 999H802C797.582 999 794 995.418 794 991V967Z" fill="#7B97F8"/>
<path fill-rule="evenodd" clip-rule="evenodd" d="M666 1138C666 1136.9 666.895 1136 668 1136H778C779.105 1136 780 1136.9 780 1138V1152C780 1153.1 779.105 1154 778 1154H668C666.895 1154 666 1153.1 666 1152V1138Z" fill="#DFE9FD"/>
<path fill-rule="evenodd" clip-rule="evenodd" d="M666 1160C666 1158.9 666.895 1158 668 1158H756C757.105 1158 758 1158.9 758 1160V1174C758 1175.1 757.105 1176 756 1176H668C666.895 1176 666 1175.1 666 1174V1160Z" fill="#DFE9FD"/>
<rect x="666" y="1023" width="172" height="101" rx="8" fill="#DFE9FD"/>
<path fill-rule="evenodd" clip-rule="evenodd" d="M765.5 1087.11V1059.89C765.5 1057.75 763.625 1056 761.333 1056H732.167C729.875 1056 728 1057.75 728 1059.89V1087.11C728 1089.25 729.875 1091 732.167 1091H761.333C763.625 1091 765.5 1089.25 765.5 1087.11ZM739.459 1076.42L744.667 1082.27L751.959 1073.5L761.334 1085.17H732.167L739.459 1076.42Z" fill="white"/>
<path fill-rule="evenodd" clip-rule="evenodd" d="M794 1144C794 1139.58 797.582 1136 802 1136H826C830.418 1136 834 1139.58 834 1144V1168C834 1172.42 830.418 1176 826 1176H802C797.582 1176 794 1172.42 794 1168V1144Z" fill="#7B97F8"/>
<path fill-rule="evenodd" clip-rule="evenodd" d="M666 1315C666 1313.9 666.895 1313 668 1313H778C779.105 1313 780 1313.9 780 1315V1329C780 1330.1 779.105 1331 778 1331H668C666.895 1331 666 1330.1 666 1329V1315Z" fill="#DFE9FD"/>
<path fill-rule="evenodd" clip-rule="evenodd" d="M666 1337C666 1335.9 666.895 1335 668 1335H756C757.105 1335 758 1335.9 758 1337V1351C758 1352.1 757.105 1353 756 1353H668C666.895 1353 666 1352.1 666 1351V1337Z" fill="#DFE9FD"/>
<rect x="666" y="1200" width="172" height="101" rx="8" fill="#DFE9FD"/>
<path fill-rule="evenodd" clip-rule="evenodd" d="M765.5 1264.11V1236.89C765.5 1234.75 763.625 1233 761.333 1233H732.167C729.875 1233 728 1234.75 728 1236.89V1264.11C728 1266.25 729.875 1268 732.167 1268H761.333C763.625 1268 765.5 1266.25 765.5 1264.11ZM739.459 1253.42L744.667 1259.27L751.959 1250.5L761.334 1262.17H732.167L739.459 1253.42Z" fill="white"/>
<path fill-rule="evenodd" clip-rule="evenodd" d="M794 1321C794 1316.58 797.582 1313 802 1313H826C830.418 1313 834 1316.58 834 1321V1345C834 1349.42 830.418 1353 826 1353H802C797.582 1353 794 1349.42 794 1345V1321Z" fill="#7B97F8"/>
</g>
</g>
<g clip-path="url(#clip8_1443_23663)">
<rect x="954" width="368" height="678" rx="6" fill="white"/>
<path d="M954 6C954 2.68629 956.686 0 960 0H1316C1319.31 0 1322 2.68629 1322 6V672C1322 675.314 1319.31 678 1316 678H960C956.686 678 954 675.314 954 672V6Z" fill="white"/>
<path d="M954 6C954 2.68629 956.686 0 960 0H1316C1319.31 0 1322 2.68629 1322 6V30H954V6Z" fill="#D9E4FD"/>
<rect x="1088" y="4" width="84" height="21" rx="10.5" fill="#EDF3FE"/>
<path fill-rule="evenodd" clip-rule="evenodd" d="M1268.62 10C1264.97 10 1262 12.9661 1262 16.625C1262 20.2839 1264.97 23.25 1268.62 23.25C1272.28 23.25 1275.25 20.2839 1275.25 16.625C1275.25 12.9661 1272.28 10 1268.62 10ZM1287.55 10C1283.89 10 1280.93 12.9661 1280.93 16.625C1280.93 20.2839 1283.89 23.25 1287.55 23.25H1308.38C1312.03 23.25 1315 20.2839 1315 16.625C1315 12.9661 1312.03 10 1308.38 10H1287.55Z" fill="#EDF3FE"/>
<path fill-rule="evenodd" clip-rule="evenodd" d="M961 16.5C961 12.9101 963.91 10 967.5 10C971.09 10 974 12.9101 974 16.5C974 20.0899 971.09 23 967.5 23C963.91 23 961 20.0899 961 16.5ZM979.571 16.5C979.571 12.9101 982.482 10 986.071 10C989.661 10 992.571 12.9101 992.571 16.5C992.571 20.0899 989.661 23 986.071 23C982.482 23 979.571 20.0899 979.571 16.5ZM1004.64 10C1001.05 10 998.143 12.9101 998.143 16.5C998.143 20.0899 1001.05 23 1004.64 23C1008.23 23 1011.14 20.0899 1011.14 16.5C1011.14 12.9101 1008.23 10 1004.64 10Z" fill="#EDF3FE"/>
<path fill-rule="evenodd" clip-rule="evenodd" d="M980 224C980 222.895 980.895 222 982 222H1214C1215.1 222 1216 222.895 1216 224V238C1216 239.105 1215.1 240 1214 240H982C980.895 240 980 239.105 980 238V224Z" fill="#DFE9FD"/>
<path fill-rule="evenodd" clip-rule="evenodd" d="M980 285C980 283.895 980.895 283 982 283H1124C1125.1 283 1126 283.895 1126 285V299C1126 300.105 1125.1 301 1124 301H982C980.895 301 980 300.105 980 299V285Z" fill="#DFE9FD"/>
<path fill-rule="evenodd" clip-rule="evenodd" d="M980 254C980 252.895 980.895 252 982 252H1110C1111.1 252 1112 252.895 1112 254V268C1112 269.105 1111.1 270 1110 270H982C980.895 270 980 269.105 980 268V254Z" fill="#DFE9FD"/>
<path fill-rule="evenodd" clip-rule="evenodd" d="M980 315C980 313.895 980.895 313 982 313H1110C1111.1 313 1112 313.895 1112 315V329C1112 330.105 1111.1 331 1110 331H982C980.895 331 980 330.105 980 329V315Z" fill="#DFE9FD"/>
<rect x="980" y="79" width="315" height="131" rx="8" fill="#DFE9FD"/>
<path fill-rule="evenodd" clip-rule="evenodd" d="M1155.5 158.111V130.889C1155.5 128.75 1153.62 127 1151.33 127H1122.17C1119.88 127 1118 128.75 1118 130.889V158.111C1118 160.25 1119.88 162 1122.17 162H1151.33C1153.62 162 1155.5 160.25 1155.5 158.111ZM1129.46 147.417L1134.67 153.269L1141.96 144.5L1151.33 156.167H1122.17L1129.46 147.417Z" fill="white"/>
<path d="M1091.44 65V53.7266H1095.3C1098.65 53.7266 1100.62 55.8125 1100.62 59.3516V59.3672C1100.62 62.9141 1098.66 65 1095.3 65H1091.44ZM1092.84 63.7344H1095.21C1097.73 63.7344 1099.19 62.125 1099.19 59.3828V59.3672C1099.19 56.6172 1097.71 54.9922 1095.21 54.9922H1092.84V63.7344ZM1106.33 65.1484C1103.92 65.1484 1102.47 63.4609 1102.47 60.8203V60.8125C1102.47 58.2109 1103.95 56.4297 1106.24 56.4297C1108.53 56.4297 1109.92 58.1328 1109.92 60.6484V61.1797H1103.86C1103.9 62.9219 1104.86 63.9375 1106.36 63.9375C1107.5 63.9375 1108.2 63.3984 1108.43 62.8906L1108.46 62.8203H1109.82L1109.8 62.8828C1109.52 64.0234 1108.31 65.1484 1106.33 65.1484ZM1106.23 57.6406C1104.98 57.6406 1104.03 58.4922 1103.88 60.0938H1108.54C1108.4 58.4297 1107.48 57.6406 1106.23 57.6406ZM1115.02 65.0625C1113.29 65.0625 1112.56 64.4219 1112.56 62.8125V57.7031H1111.23V56.5781H1112.56V54.3984H1113.97V56.5781H1115.81V57.7031H1113.97V62.4688C1113.97 63.4609 1114.31 63.8594 1115.19 63.8594C1115.43 63.8594 1115.56 63.8516 1115.81 63.8281V64.9844C1115.55 65.0312 1115.29 65.0625 1115.02 65.0625ZM1120.16 65.1484C1118.55 65.1484 1117.34 64.1797 1117.34 62.6484V62.6328C1117.34 61.1328 1118.45 60.2656 1120.41 60.1484L1122.83 60V59.2344C1122.83 58.1953 1122.2 57.6328 1120.94 57.6328C1119.93 57.6328 1119.27 58.0078 1119.05 58.6641L1119.04 58.6875H1117.68L1117.69 58.6406C1117.91 57.3203 1119.19 56.4297 1120.98 56.4297C1123.04 56.4297 1124.19 57.4844 1124.19 59.2344V65H1122.83V63.7578H1122.7C1122.17 64.6562 1121.29 65.1484 1120.16 65.1484ZM1118.73 62.6172C1118.73 63.4688 1119.46 63.9688 1120.44 63.9688C1121.82 63.9688 1122.83 63.0625 1122.83 61.8594V61.0938L1120.58 61.2344C1119.3 61.3125 1118.73 61.7656 1118.73 62.6016V62.6172ZM1127.39 54.9531C1126.88 54.9531 1126.45 54.5312 1126.45 54.0156C1126.45 53.5 1126.88 53.0781 1127.39 53.0781C1127.91 53.0781 1128.33 53.5 1128.33 54.0156C1128.33 54.5312 1127.91 54.9531 1127.39 54.9531ZM1126.7 65V56.5781H1128.06V65H1126.7ZM1130.7 65V53.2344H1132.06V65H1130.7ZM1137.56 65.1484C1135.69 65.1484 1134.4 64.2422 1134.24 62.8516H1135.63C1135.86 63.5547 1136.53 64.0156 1137.61 64.0156C1138.74 64.0156 1139.55 63.4766 1139.55 62.7109V62.6953C1139.55 62.125 1139.12 61.7266 1138.08 61.4766L1136.77 61.1641C1135.2 60.7891 1134.48 60.1016 1134.48 58.8906V58.8828C1134.48 57.4844 1135.83 56.4297 1137.62 56.4297C1139.38 56.4297 1140.61 57.3125 1140.8 58.6875H1139.46C1139.28 58.0234 1138.62 57.5625 1137.61 57.5625C1136.61 57.5625 1135.88 58.0781 1135.88 58.8203V58.8359C1135.88 59.4062 1136.3 59.7656 1137.29 60.0078L1138.59 60.3203C1140.17 60.7031 1140.94 61.3906 1140.94 62.5938V62.6094C1140.94 64.1094 1139.48 65.1484 1137.56 65.1484Z" fill="black"/>
<path fill-rule="evenodd" clip-rule="evenodd" d="M972 617C972 612.582 975.582 609 980 609H1291C1295.42 609 1299 612.582 1299 617V651C1299 655.418 1295.42 659 1291 659H980C975.582 659 972 655.418 972 651V617Z" fill="#7B97F8"/>
</g>
<g clip-path="url(#clip9_1443_23663)">
<rect x="954" y="766" width="368" height="678" rx="6" fill="white"/>
<path d="M954 772C954 768.686 956.686 766 960 766H1316C1319.31 766 1322 768.686 1322 772V1438C1322 1441.31 1319.31 1444 1316 1444H960C956.686 1444 954 1441.31 954 1438V772Z" fill="white"/>
<path d="M954 772C954 768.686 956.686 766 960 766H1316C1319.31 766 1322 768.686 1322 772V796H954V772Z" fill="#D9E4FD"/>
<rect x="1088" y="770" width="84" height="21" rx="10.5" fill="#EDF3FE"/>
<path fill-rule="evenodd" clip-rule="evenodd" d="M1268.62 776C1264.97 776 1262 778.966 1262 782.625C1262 786.284 1264.97 789.25 1268.62 789.25C1272.28 789.25 1275.25 786.284 1275.25 782.625C1275.25 778.966 1272.28 776 1268.62 776ZM1287.55 776C1283.89 776 1280.93 778.966 1280.93 782.625C1280.93 786.284 1283.89 789.25 1287.55 789.25H1308.38C1312.03 789.25 1315 786.284 1315 782.625C1315 778.966 1312.03 776 1308.38 776H1287.55Z" fill="#EDF3FE"/>
<path fill-rule="evenodd" clip-rule="evenodd" d="M961 782.5C961 778.91 963.91 776 967.5 776C971.09 776 974 778.91 974 782.5C974 786.09 971.09 789 967.5 789C963.91 789 961 786.09 961 782.5ZM979.571 782.5C979.571 778.91 982.482 776 986.071 776C989.661 776 992.571 778.91 992.571 782.5C992.571 786.09 989.661 789 986.071 789C982.482 789 979.571 786.09 979.571 782.5ZM1004.64 776C1001.05 776 998.143 778.91 998.143 782.5C998.143 786.09 1001.05 789 1004.64 789C1008.23 789 1011.14 786.09 1011.14 782.5C1011.14 778.91 1008.23 776 1004.64 776Z" fill="#EDF3FE"/>
<path fill-rule="evenodd" clip-rule="evenodd" d="M1155.5 924.111V896.889C1155.5 894.75 1153.62 893 1151.33 893H1122.17C1119.88 893 1118 894.75 1118 896.889V924.111C1118 926.25 1119.88 928 1122.17 928H1151.33C1153.62 928 1155.5 926.25 1155.5 924.111ZM1129.46 913.417L1134.67 919.269L1141.96 910.5L1151.33 922.167H1122.17L1129.46 913.417Z" fill="white"/>
<path d="M1094.37 831V820.992H1090.73V819.727H1099.41V820.992H1095.77V831H1094.37ZM1100.23 831V822.578H1101.59V823.828H1101.72C1102.04 822.945 1102.83 822.43 1103.97 822.43C1104.23 822.43 1104.52 822.461 1104.65 822.484V823.805C1104.37 823.758 1104.11 823.727 1103.81 823.727C1102.52 823.727 1101.59 824.547 1101.59 825.781V831H1100.23ZM1108.64 831.148C1107.04 831.148 1105.83 830.18 1105.83 828.648V828.633C1105.83 827.133 1106.94 826.266 1108.9 826.148L1111.31 826V825.234C1111.31 824.195 1110.68 823.633 1109.42 823.633C1108.41 823.633 1107.75 824.008 1107.53 824.664L1107.52 824.688H1106.16L1106.17 824.641C1106.39 823.32 1107.67 822.43 1109.47 822.43C1111.52 822.43 1112.67 823.484 1112.67 825.234V831H1111.31V829.758H1111.19C1110.66 830.656 1109.77 831.148 1108.64 831.148ZM1107.22 828.617C1107.22 829.469 1107.95 829.969 1108.92 829.969C1110.3 829.969 1111.31 829.062 1111.31 827.859V827.094L1109.06 827.234C1107.78 827.312 1107.22 827.766 1107.22 828.602V828.617ZM1118.6 831.148C1116.24 831.148 1114.73 829.438 1114.73 826.766V826.75C1114.73 824.133 1116.23 822.43 1118.59 822.43C1120.64 822.43 1121.87 823.609 1122.12 825.109L1122.12 825.156H1120.77L1120.77 825.133C1120.55 824.305 1119.8 823.633 1118.59 823.633C1117.08 823.633 1116.12 824.852 1116.12 826.75V826.766C1116.12 828.703 1117.09 829.945 1118.59 829.945C1119.73 829.945 1120.45 829.445 1120.76 828.508L1120.77 828.461L1122.12 828.453L1122.1 828.539C1121.76 830.062 1120.62 831.148 1118.6 831.148ZM1124.19 831V819.234H1125.55V826.258H1125.67L1129.31 822.578H1130.96L1127.29 826.117L1131.2 831H1129.49L1126.34 827.039L1125.55 827.805V831H1124.19ZM1142.2 831.266C1138.97 831.266 1137.03 828.969 1137.03 825.367V825.352C1137.03 821.734 1139.02 819.461 1142.2 819.461C1145.41 819.461 1147.38 821.742 1147.38 825.352V825.367C1147.38 828.961 1145.42 831.266 1142.2 831.266ZM1142.2 829.969C1144.52 829.969 1145.94 828.156 1145.94 825.367V825.352C1145.94 822.539 1144.51 820.758 1142.2 820.758C1139.91 820.758 1138.47 822.539 1138.47 825.352V825.367C1138.47 828.156 1139.86 829.969 1142.2 829.969ZM1149.64 831V822.578H1151V823.828H1151.12C1151.45 822.945 1152.23 822.43 1153.38 822.43C1153.63 822.43 1153.92 822.461 1154.05 822.484V823.805C1153.77 823.758 1153.52 823.727 1153.22 823.727C1151.92 823.727 1151 824.547 1151 825.781V831H1149.64ZM1158.61 831.148C1156.48 831.148 1155.08 829.422 1155.08 826.797V826.781C1155.08 824.141 1156.47 822.43 1158.61 822.43C1159.77 822.43 1160.77 823.008 1161.23 823.906H1161.36V819.234H1162.72V831H1161.36V829.656H1161.23C1160.72 830.594 1159.78 831.148 1158.61 831.148ZM1158.92 829.945C1160.45 829.945 1161.39 828.742 1161.39 826.797V826.781C1161.39 824.836 1160.45 823.633 1158.92 823.633C1157.38 823.633 1156.47 824.82 1156.47 826.781V826.797C1156.47 828.758 1157.38 829.945 1158.92 829.945ZM1168.77 831.148C1166.36 831.148 1164.91 829.461 1164.91 826.82V826.812C1164.91 824.211 1166.39 822.43 1168.68 822.43C1170.97 822.43 1172.36 824.133 1172.36 826.648V827.18H1166.3C1166.34 828.922 1167.3 829.938 1168.8 829.938C1169.94 829.938 1170.64 829.398 1170.87 828.891L1170.9 828.82H1172.26L1172.24 828.883C1171.95 830.023 1170.75 831.148 1168.77 831.148ZM1168.67 823.641C1167.42 823.641 1166.47 824.492 1166.32 826.094H1170.98C1170.84 824.43 1169.91 823.641 1168.67 823.641ZM1174.47 831V822.578H1175.83V823.828H1175.95C1176.27 822.945 1177.06 822.43 1178.2 822.43C1178.46 822.43 1178.75 822.461 1178.88 822.484V823.805C1178.6 823.758 1178.34 823.727 1178.05 823.727C1176.75 823.727 1175.83 824.547 1175.83 825.781V831H1174.47Z" fill="black"/>
<path fill-rule="evenodd" clip-rule="evenodd" d="M972 1383C972 1378.58 975.582 1375 980 1375H1291C1295.42 1375 1299 1378.58 1299 1383V1417C1299 1421.42 1295.42 1425 1291 1425H980C975.582 1425 972 1421.42 972 1417V1383Z" fill="#7B97F8"/>
<rect x="966" y="853" width="75" height="75" rx="8" fill="#DFE9FD"/>
<rect x="966" y="975" width="75" height="75" rx="8" fill="#DFE9FD"/>
<rect x="966" y="1097" width="75" height="75" rx="8" fill="#DFE9FD"/>
<path fill-rule="evenodd" clip-rule="evenodd" d="M1063 856C1063 854.895 1063.9 854 1065 854H1260C1261.1 854 1262 854.895 1262 856V870C1262 871.105 1261.1 872 1260 872H1065C1063.9 872 1063 871.105 1063 870V856Z" fill="#DFE9FD"/>
<path fill-rule="evenodd" clip-rule="evenodd" d="M1063 978C1063 976.895 1063.9 976 1065 976H1260C1261.1 976 1262 976.895 1262 978V992C1262 993.105 1261.1 994 1260 994H1065C1063.9 994 1063 993.105 1063 992V978Z" fill="#DFE9FD"/>
<path fill-rule="evenodd" clip-rule="evenodd" d="M1063 1100C1063 1098.9 1063.9 1098 1065 1098H1260C1261.1 1098 1262 1098.9 1262 1100V1114C1262 1115.1 1261.1 1116 1260 1116H1065C1063.9 1116 1063 1115.1 1063 1114V1100Z" fill="#DFE9FD"/>
<path fill-rule="evenodd" clip-rule="evenodd" d="M1063 886C1063 884.895 1063.9 884 1065 884H1228C1229.1 884 1230 884.895 1230 886V900C1230 901.105 1229.1 902 1228 902H1065C1063.9 902 1063 901.105 1063 900V886Z" fill="#DFE9FD"/>
<path fill-rule="evenodd" clip-rule="evenodd" d="M1063 1008C1063 1006.9 1063.9 1006 1065 1006H1228C1229.1 1006 1230 1006.9 1230 1008V1022C1230 1023.1 1229.1 1024 1228 1024H1065C1063.9 1024 1063 1023.1 1063 1022V1008Z" fill="#DFE9FD"/>
<path fill-rule="evenodd" clip-rule="evenodd" d="M1063 1130C1063 1128.9 1063.9 1128 1065 1128H1228C1229.1 1128 1230 1128.9 1230 1130V1144C1230 1145.1 1229.1 1146 1228 1146H1065C1063.9 1146 1063 1145.1 1063 1144V1130Z" fill="#DFE9FD"/>
<line x1="1004.5" y1="936.962" x2="1004.5" y2="963.038" stroke="#C5D9FB"/>
<line x1="1004.5" y1="1061" x2="1004.5" y2="1087.08" stroke="#C5D9FB"/>
<path fill-rule="evenodd" clip-rule="evenodd" d="M972 1239C972 1237.9 972.895 1237 974 1237H1296C1297.1 1237 1298 1237.9 1298 1239V1253C1298 1254.1 1297.1 1255 1296 1255H974C972.895 1255 972 1254.1 972 1253V1239Z" fill="#DFE9FD"/>
<path fill-rule="evenodd" clip-rule="evenodd" d="M972 1209C972 1207.9 972.895 1207 974 1207H1232C1233.1 1207 1234 1207.9 1234 1209V1223C1234 1224.1 1233.1 1225 1232 1225H974C972.895 1225 972 1224.1 972 1223V1209Z" fill="#DFE9FD"/>
<path fill-rule="evenodd" clip-rule="evenodd" d="M972 1269C972 1267.9 972.895 1267 974 1267H1232C1233.1 1267 1234 1267.9 1234 1269V1283C1234 1284.1 1233.1 1285 1232 1285H974C972.895 1285 972 1284.1 972 1283V1269Z" fill="#DFE9FD"/>
</g>
<defs>
<clipPath id="clip0_1443_23663">
<rect width="368" height="678" fill="white"/>
</clipPath>
<clipPath id="clip1_1443_23663">
<rect width="368" height="678" fill="white"/>
</clipPath>
<clipPath id="clip2_1443_23663">
<rect width="368" height="678" fill="white" transform="translate(0 766)"/>
</clipPath>
<clipPath id="clip3_1443_23663">
<rect width="368" height="678" fill="white" transform="translate(0 766)"/>
</clipPath>
<clipPath id="clip4_1443_23663">
<rect width="368" height="678" fill="white" transform="translate(477)"/>
</clipPath>
<clipPath id="clip5_1443_23663">
<rect width="368" height="678" fill="white" transform="translate(477)"/>
</clipPath>
<clipPath id="clip6_1443_23663">
<rect width="368" height="678" fill="white" transform="translate(477 766)"/>
</clipPath>
<clipPath id="clip7_1443_23663">
<rect width="368" height="678" fill="white" transform="translate(477 766)"/>
</clipPath>
<clipPath id="clip8_1443_23663">
<rect x="954" width="368" height="678" rx="6" fill="white"/>
</clipPath>
<clipPath id="clip9_1443_23663">
<rect x="954" y="766" width="368" height="678" rx="6" fill="white"/>
</clipPath>
</defs>
</svg>
