<svg width="50" height="58" viewBox="0 0 50 58" fill="none" xmlns="http://www.w3.org/2000/svg">
<path fill-rule="evenodd" clip-rule="evenodd" d="M2.07112 20.8096C4.17613 19.5941 7.6604 21.6833 9.8482 25.4723C12.036 29.2613 12.1029 33.3234 9.99793 34.5388C7.89292 35.7543 4.40865 33.6651 2.22085 29.8761C0.0330485 26.0871 -0.0338876 22.025 2.07112 20.8096Z" fill="url(#paint0_linear_1476_15494)"/>
<path fill-rule="evenodd" clip-rule="evenodd" d="M48.0696 21.5582C46.1936 20.0115 42.4117 21.4965 39.6285 24.8733C36.8453 28.2484 36.109 32.2435 37.9832 33.7901C39.8592 35.3367 43.6412 33.8518 46.4244 30.4749C49.2076 27.0999 49.9439 23.1048 48.0696 21.5582Z" fill="url(#paint1_linear_1476_15494)"/>
<path fill-rule="evenodd" clip-rule="evenodd" d="M26.2915 0.00255142C35.8107 0.161088 44.6218 8.30104 43.9066 22.9022C43.4662 31.8648 37.9157 34.3098 34.8383 44.0386C33.3375 48.7841 33.1825 53.5754 33.2371 56.1684C33.249 56.4207 33.2061 56.6726 33.1114 56.9067C33.0167 57.1409 32.8724 57.3517 32.6885 57.5248C32.5045 57.6979 32.2853 57.829 32.0458 57.9093C31.8063 57.9896 31.5523 58.017 31.3012 57.9898C19.8443 56.2952 5.15332 41.0951 5.15332 26.4252C5.15332 10.8693 14.6267 -0.192977 26.2915 0.00255142Z" fill="url(#paint2_linear_1476_15494)"/>
<path fill-rule="evenodd" clip-rule="evenodd" d="M6.17852 33.348C5.51337 31.1 5.16824 28.7695 5.15332 26.4253C5.15332 10.8693 14.6267 -0.192977 26.2915 0.00255142C33.5031 0.122334 40.3096 4.82381 42.8726 13.4447C41.5109 26.7599 31.1867 37.1264 18.6712 37.1264C14.1053 37.1264 9.8319 35.7454 6.17852 33.348Z" fill="url(#paint3_linear_1476_15494)"/>
<path d="M24.5299 30.3164C26.4756 30.3164 28.0529 27.9505 28.0529 25.0319C28.0529 22.1133 26.4756 19.7473 24.5299 19.7473C22.5841 19.7473 21.0068 22.1133 21.0068 25.0319C21.0068 27.9505 22.5841 30.3164 24.5299 30.3164Z" fill="black"/>
<path fill-rule="evenodd" clip-rule="evenodd" d="M19.1789 12.9338C19.4978 14.0999 19.5172 16.0781 17.775 17.2565C17.6736 17.3187 17.5859 17.4007 17.517 17.4977C17.4482 17.5947 17.3997 17.7046 17.3745 17.8208C17.3493 17.937 17.3479 18.0571 17.3704 18.1739C17.3928 18.2907 17.4387 18.4017 17.5053 18.5003C17.5718 18.5989 17.6576 18.6829 17.7575 18.7474C17.8575 18.8119 17.9694 18.8555 18.0866 18.8756C18.2038 18.8957 18.3239 18.8918 18.4396 18.8642C18.5553 18.8366 18.6642 18.7859 18.7597 18.7151C21.291 17.0064 21.3403 14.1633 20.8788 12.4705C20.8174 12.2451 20.6689 12.0533 20.4661 11.9373C20.2632 11.8214 20.0226 11.7908 19.7972 11.8522C19.5718 11.9136 19.38 12.0621 19.2641 12.2649C19.1481 12.4678 19.1175 12.7084 19.1789 12.9338ZM28.182 12.4705C27.7205 14.1633 27.7698 17.0064 30.3011 18.7151C30.3967 18.7859 30.5056 18.8366 30.6213 18.8642C30.7369 18.8918 30.857 18.8957 30.9742 18.8756C31.0914 18.8555 31.2034 18.8119 31.3033 18.7474C31.4032 18.6829 31.489 18.5989 31.5556 18.5003C31.6221 18.4017 31.668 18.2907 31.6905 18.1739C31.713 18.0571 31.7115 17.937 31.6863 17.8208C31.6611 17.7046 31.6126 17.5947 31.5438 17.4977C31.475 17.4007 31.3872 17.3187 31.2858 17.2565C29.5437 16.0781 29.5631 14.0999 29.8819 12.9338C29.9433 12.7084 29.9127 12.4678 29.7967 12.2649C29.7393 12.1645 29.6627 12.0764 29.5712 12.0055C29.4797 11.9347 29.3752 11.8826 29.2636 11.8522C29.0382 11.7908 28.7976 11.8214 28.5948 11.9373C28.3919 12.0533 28.2435 12.2451 28.182 12.4705Z" fill="black"/>
<defs>
<linearGradient id="paint0_linear_1476_15494" x1="-0.270036" y1="22.3023" x2="9.63598" y2="32.0132" gradientUnits="userSpaceOnUse">
<stop stop-color="#A4BBDB"/>
<stop offset="1" stop-color="#8DA3BE"/>
</linearGradient>
<linearGradient id="paint1_linear_1476_15494" x1="51.8217" y1="23.4988" x2="36.9675" y2="31.5808" gradientUnits="userSpaceOnUse">
<stop stop-color="#A4BBDB"/>
<stop offset="1" stop-color="#8DA3BE"/>
</linearGradient>
<linearGradient id="paint2_linear_1476_15494" x1="5.15332" y1="28.9988" x2="43.9471" y2="28.9988" gradientUnits="userSpaceOnUse">
<stop stop-color="#CADCF0"/>
<stop offset="1" stop-color="#A4BBDB"/>
</linearGradient>
<linearGradient id="paint3_linear_1476_15494" x1="9.64718" y1="9.66764" x2="42.8705" y2="13.4424" gradientUnits="userSpaceOnUse">
<stop stop-color="#E9F3FC"/>
<stop offset="1" stop-color="#CADCF0"/>
</linearGradient>
</defs>
</svg>
