<svg width="13" height="14" viewBox="0 0 13 14" fill="none" xmlns="http://www.w3.org/2000/svg">
<path fill-rule="evenodd" clip-rule="evenodd" d="M2 0.333252C1.46957 0.333252 0.960859 0.543966 0.585787 0.919038C0.210714 1.29411 0 1.80282 0 2.33325V11.6666C0 12.197 0.210714 12.7057 0.585787 13.0808C0.960859 13.4559 1.46957 13.6666 2 13.6666H6C6.53043 13.6666 7.03914 13.4559 7.41421 13.0808C7.78929 12.7057 8 12.197 8 11.6666V2.33325C8 1.80282 7.78929 1.29411 7.41421 0.919038C7.03914 0.543966 6.53043 0.333252 6 0.333252H2ZM8.862 3.86192C8.98702 3.73694 9.15656 3.66673 9.33333 3.66673C9.51011 3.66673 9.67965 3.73694 9.80467 3.86192L12.4713 6.52859C12.5963 6.6536 12.6665 6.82314 12.6665 6.99992C12.6665 7.17669 12.5963 7.34623 12.4713 7.47125L9.80467 10.1379C9.67893 10.2594 9.51053 10.3266 9.33573 10.325C9.16094 10.3235 8.99373 10.2534 8.87012 10.1298C8.74652 10.0062 8.6764 9.83898 8.67488 9.66419C8.67336 9.48939 8.74056 9.32099 8.862 9.19525L10.3907 7.66659H4.66667C4.48986 7.66659 4.32029 7.59635 4.19526 7.47132C4.07024 7.3463 4 7.17673 4 6.99992C4 6.82311 4.07024 6.65354 4.19526 6.52851C4.32029 6.40349 4.48986 6.33325 4.66667 6.33325H10.3907L8.862 4.80459C8.73702 4.67957 8.66681 4.51003 8.66681 4.33325C8.66681 4.15648 8.73702 3.98694 8.862 3.86192Z" fill="#A3BDFA"/>
</svg>
