<svg width="46" height="45" viewBox="0 0 46 45" fill="none" xmlns="http://www.w3.org/2000/svg">
<path d="M27.068 16.3267L0.937461 42.4572L0.858887 43.2992L2.51817 44.038L29.4212 17.1349L27.068 16.3267Z" fill="#CADCF0"/>
<path d="M29.1795 16.3267L3.04901 42.4572C2.46586 43.0403 1.5205 43.0402 0.937349 42.4572C0.296099 43.0984 0.359996 44.1778 1.12913 44.7317C1.73276 45.1664 2.57959 45.0382 3.10552 44.5123L29.1794 18.4384L29.1795 16.3267Z" fill="#A4BBDB"/>
<path d="M42.8067 3.12018C42.7115 3.08263 42.625 3.02592 42.5527 2.95356C42.4803 2.8812 42.4236 2.79473 42.3861 2.69953L41.5102 0.478801C41.2617 -0.151462 40.3698 -0.151462 40.1212 0.478801L39.2454 2.69953C39.2078 2.79473 39.1511 2.8812 39.0788 2.95356C39.0064 3.02592 38.9199 3.08263 38.8247 3.12018L36.604 3.99601C35.9737 4.24456 35.9737 5.13648 36.604 5.38503L38.8247 6.26086C38.9199 6.29841 39.0064 6.35512 39.0788 6.42748C39.1511 6.49984 39.2078 6.58631 39.2454 6.68151L39.3843 7.03377L42.1061 5.73862L42.8902 3.15314L42.8067 3.12018ZM38.1726 18.6526L37.7773 17.6503C37.5288 17.0201 36.6369 17.0201 36.3883 17.6503L34.879 21.4774C34.8414 21.5726 34.7847 21.659 34.7123 21.7314C34.64 21.8038 34.5535 21.8605 34.4583 21.898L30.6314 23.4074C30.0011 23.6559 30.0011 24.5478 30.6314 24.7964L34.4583 26.3056C34.5535 26.3432 34.64 26.3999 34.7123 26.4723C34.7847 26.5446 34.8414 26.6311 34.879 26.7263L35.1809 27.4916L39.9491 25.5057L38.1726 18.6526Z" fill="#6681F4"/>
<path d="M28.8701 6.9303H28.1235C27.9255 6.9303 27.7356 6.85165 27.5956 6.71165C27.4556 6.57164 27.3769 6.38176 27.3769 6.18376V5.43722C27.3769 5.02457 27.043 4.69067 26.6304 4.69067C26.2177 4.69067 25.8838 5.02457 25.8838 5.43722V6.18376C25.8838 6.2818 25.8644 6.37887 25.8269 6.46945C25.7894 6.56002 25.7344 6.64232 25.6651 6.71165C25.5958 6.78097 25.5135 6.83596 25.4229 6.87348C25.3323 6.91099 25.2353 6.9303 25.1372 6.9303H24.3907C23.978 6.9303 23.644 7.2642 23.644 7.67685C23.644 8.08949 23.9779 8.42339 24.3907 8.42339H25.1372C25.2353 8.42339 25.3323 8.4427 25.4229 8.48022C25.5135 8.51773 25.5958 8.57272 25.6651 8.64205C25.7344 8.71137 25.7894 8.79367 25.8269 8.88424C25.8644 8.97482 25.8838 9.07189 25.8838 9.16993V9.91647C25.8838 10.3291 26.2177 10.663 26.6304 10.663C27.0431 10.663 27.3769 10.3291 27.3769 9.91647V9.16993C27.3769 8.97194 27.4556 8.78205 27.5956 8.64205C27.7356 8.50204 27.9255 8.42339 28.1235 8.42339H28.8701C29.2828 8.42339 29.6166 8.08949 29.6166 7.67685C29.6166 7.2642 29.2828 6.9303 28.8701 6.9303Z" fill="#A3BDFA"/>
<path d="M24.172 31.7864C24.1027 31.7171 24.0204 31.6621 23.9298 31.6246C23.8393 31.587 23.7422 31.5677 23.6442 31.5677C23.5461 31.5677 23.449 31.587 23.3585 31.6246C23.2679 31.6621 23.1856 31.7171 23.1163 31.7864L22.6789 32.2239C22.5388 32.3639 22.3489 32.4425 22.1509 32.4425C21.9529 32.4425 21.763 32.3639 21.623 32.2239L21.1856 31.7864C20.894 31.4948 20.4215 31.4948 20.1298 31.7864C19.8382 32.0781 19.8382 32.5506 20.1298 32.8422L20.5673 33.2796C20.7073 33.4196 20.7859 33.6095 20.7859 33.8075C20.7859 34.0055 20.7073 34.1954 20.5673 34.3354L20.1298 34.7729C20.0605 34.8422 20.0055 34.9245 19.968 35.0151C19.9304 35.1056 19.9111 35.2027 19.9111 35.3007C19.9111 35.3988 19.9304 35.4959 19.968 35.5864C20.0055 35.677 20.0605 35.7593 20.1298 35.8286C20.1991 35.8981 20.2814 35.9531 20.372 35.9907C20.4625 36.0282 20.5597 36.0475 20.6577 36.0474C20.8487 36.0474 21.0398 35.9744 21.1856 35.8286L21.623 35.3912C21.763 35.2512 21.9529 35.1725 22.1509 35.1725C22.3489 35.1725 22.5388 35.2512 22.6789 35.3912L23.1163 35.8286C23.2621 35.9744 23.4531 36.0474 23.6442 36.0474C23.8352 36.0474 24.0262 35.9744 24.172 35.8286C24.2414 35.7593 24.2964 35.677 24.3339 35.5864C24.3714 35.4959 24.3907 35.3988 24.3907 35.3007C24.3907 35.2027 24.3714 35.1056 24.3339 35.0151C24.2964 34.9245 24.2414 34.8422 24.172 34.7729L23.7346 34.3354C23.5946 34.1954 23.5159 34.0055 23.5159 33.8075C23.5159 33.6095 23.5946 33.4196 23.7346 33.2796L24.172 32.8422C24.2414 32.7729 24.2964 32.6906 24.3339 32.6C24.3714 32.5094 24.3907 32.4124 24.3907 32.3143C24.3907 32.2163 24.3714 32.1192 24.3339 32.0286C24.2964 31.938 24.2414 31.8558 24.172 31.7864ZM27.0678 16.3267L28.1237 17.3826L32.9049 13.9948L35.1521 10.354C34.569 9.77098 33.6236 9.77098 33.0405 10.354L27.0678 16.3267Z" fill="#6681F4"/>
<path d="M35.1523 10.354L28.1238 17.3826L29.1796 18.4384L35.1523 12.4657C35.7355 11.8826 35.7355 10.9372 35.1523 10.354ZM43.5343 23.4073L39.7073 21.8979C39.6121 21.8604 39.5256 21.8037 39.4533 21.7314C39.3809 21.659 39.3242 21.5726 39.2867 21.4774L38.1727 18.6528C38.2596 19.1808 38.3163 19.7192 38.3163 20.2719C38.3163 23.1219 37.1066 25.6837 35.1809 27.4917L36.3884 30.5533C36.6369 31.1836 37.5289 31.1836 37.7773 30.5533L39.2868 26.7263C39.3243 26.6311 39.381 26.5447 39.4534 26.4723C39.5258 26.4 39.6122 26.3433 39.7074 26.3058L43.5344 24.7964C44.1644 24.5478 44.1644 23.6558 43.5343 23.4073ZM45.0275 3.99604L42.8902 3.15308C42.0181 4.69046 40.8181 6.01348 39.3844 7.0338L40.1214 8.90227C40.3698 9.53253 41.2618 9.53253 41.5103 8.90227L42.3862 6.68153C42.4238 6.58636 42.4805 6.49991 42.5528 6.42757C42.6252 6.35522 42.7116 6.29852 42.8068 6.26098L45.0276 5.38515C45.6576 5.1365 45.6576 4.24459 45.0275 3.99604Z" fill="#347BFA"/>
</svg>
