<svg width="46" height="45" viewBox="0 0 46 45" fill="none" xmlns="http://www.w3.org/2000/svg">
<path d="M43.8138 0.243721L41.883 0H13.8976C13.1009 0 12.4551 0.645908 12.4551 1.44255V16.541C12.4551 17.3373 13.1006 17.9829 13.8969 17.9829H35.7602C35.9304 17.9829 36.0952 18.0431 36.2254 18.1529L39.598 20.9984L40.1294 21.3128C40.4446 21.4993 40.8588 21.4473 41.0924 21.1653C41.1553 21.0894 41.1972 21.0052 41.1972 20.9158V18.46C41.1972 18.2688 41.2732 18.0855 41.4084 17.9503C41.5436 17.8151 41.7269 17.7391 41.9181 17.7391H43.8138C44.6105 17.7391 45.2563 17.0932 45.2563 16.2966V1.68557C45.2564 0.889277 44.6105 0.243721 43.8138 0.243721Z" fill="#CADCF0"/>
<path d="M44.0574 0H41.7608C42.5575 0 43.2034 0.645557 43.2034 1.44185V15.0932C43.1955 15.8828 42.5533 16.5206 41.7615 16.5206H40.319C39.9207 16.5206 39.5977 16.8434 39.5977 17.2415V20.9984L40.375 21.6543C40.4694 21.734 40.5845 21.7851 40.7069 21.8015C40.8293 21.8179 40.9538 21.799 41.0658 21.747C41.1778 21.695 41.2726 21.6121 41.339 21.508C41.4055 21.404 41.4408 21.2831 41.4408 21.1596V18.7038C41.4408 18.3057 41.7637 17.983 42.1621 17.983H44.0574C44.8541 17.983 45.5 17.3374 45.5 16.5411V1.44185C45.5 0.645557 44.854 0 44.0574 0Z" fill="#A4BBDB"/>
<path d="M31.7167 15.805L30.0644 15.5322H2.02534C1.18291 15.5322 0.5 16.2148 0.5 17.0568V39.432C0.5 40.274 1.18291 40.9565 2.02534 40.9565H3.55068C3.97186 40.9565 4.31331 41.2978 4.31331 41.7188V44.3153C4.31333 44.4053 4.33107 44.4943 4.36551 44.5774C4.39995 44.6605 4.45041 44.736 4.51402 44.7996C4.57763 44.8631 4.65314 44.9136 4.73624 44.948C4.81934 44.9823 4.90839 45 4.99833 45C5.16005 45 5.31658 44.9428 5.44016 44.8386L9.82818 41.1363C9.9658 41.0202 10.14 40.9565 10.3201 40.9565H30.1069L31.8624 40.8396C32.7048 40.8396 33.3877 40.1571 33.3877 39.3151L33.242 17.3295C33.2421 16.4875 32.5592 15.805 31.7167 15.805Z" fill="#E9F3FC"/>
<path d="M33.5654 17.0566V39.4319C33.5654 40.2735 32.8828 40.9567 32.0407 40.9567H29.8677C30.7097 40.9567 31.3924 40.2736 31.3924 39.4319V17.0566C31.3924 16.215 30.7098 15.5317 29.8677 15.5317H32.0407C32.8828 15.5317 33.5654 16.215 33.5654 17.0566Z" fill="#CADCF0"/>
<path d="M29.3263 26.3151C29.3263 21.6279 25.513 17.8146 20.8258 17.8146C19.3799 17.8146 18.0173 18.1778 16.824 18.8173C15.483 18.5116 14.1015 18.4766 12.7737 18.7342C10.3597 19.2024 8.35443 20.5622 6.9749 22.6667C6.55716 23.304 6.25921 24.1712 6.16683 25.1204C4.79345 26.4184 4.0804 27.9527 4.0804 29.6487C4.0804 33.1394 7.26459 35.3001 10.2149 35.3001C12.7964 35.3001 14.0876 33.7951 14.7574 32.2612C15.1291 32.6404 15.5351 32.9843 15.9704 33.2883C15.5197 33.7323 15.2164 34.2891 15.1028 34.9195C14.882 36.1438 15.4126 37.4121 16.4545 38.1506C17.0837 38.5967 17.8354 38.8183 18.6622 38.8183C19.6637 38.8183 20.7756 38.4931 21.9139 37.8474C23.3264 37.0462 24.2428 35.6816 24.5516 33.9545C27.3762 32.5711 29.3263 29.6667 29.3263 26.3151ZM20.8257 33.4446C20.3067 33.4443 19.7893 33.3873 19.2828 33.2745C21.1777 32.5606 22.3352 31.5692 23.0312 30.5472C23.2406 31.3762 23.3328 32.2111 23.286 33.0067C22.4983 33.2971 21.6652 33.4454 20.8257 33.4446ZM17.0286 20.2854C17.9872 20.5634 18.9152 21.0023 19.7651 21.5929C21.0711 22.5006 22.2805 24.4097 22.583 26.3381C21.9189 25.3932 21.119 24.5533 20.2179 23.89C18.5353 22.6511 16.6016 22.2371 15.0521 22.1399C15.5873 21.4019 16.2581 20.7725 17.0286 20.2854ZM20.8257 19.1856C24.7568 19.1856 27.9552 22.3838 27.9552 26.3151C27.9552 28.8335 26.6415 31.0494 24.6645 32.3181C24.6274 31.1054 24.3439 29.8584 23.8598 28.674C23.8893 28.5517 23.9141 28.4312 23.9347 28.3134C24.4656 25.2899 22.5898 21.8865 20.5475 20.467C19.9972 20.0847 19.4125 19.7543 18.801 19.4802C19.4582 19.2848 20.1401 19.1856 20.8257 19.1856ZM8.12143 23.4184C9.29345 21.6306 10.9925 20.4762 13.0348 20.08C13.7419 19.9428 14.4678 19.9025 15.1931 19.9544C14.486 20.5811 13.8876 21.3205 13.422 22.1426C11.6232 22.2589 9.84066 22.743 8.43775 23.5071C8.25717 23.6053 8.07894 23.7078 7.9032 23.8145C7.96621 23.6773 8.03914 23.5449 8.12143 23.4184ZM10.2147 33.9291C7.92385 33.9291 5.45132 32.2926 5.45132 29.6488C5.45132 28.7179 5.72782 27.8544 6.27696 27.0633C6.38761 27.572 6.56709 28.0767 6.82689 28.5575C7.60411 29.9963 9.34654 31.7114 13.2345 31.7114C13.3229 31.7114 13.4104 31.7108 13.4973 31.7096C12.9519 32.9619 11.996 33.9291 10.2147 33.9291ZM13.2343 30.3402C10.6919 30.3402 8.89329 29.4984 8.03301 27.9058C7.66598 27.2263 7.50945 26.4761 7.5055 25.7618C7.96007 25.3906 8.48952 25.0402 9.0935 24.7114C10.1324 24.1456 11.4208 23.7471 12.7778 23.5768C12.4773 24.4585 12.3243 25.3837 12.3252 26.3152C12.3252 27.7701 12.6928 29.1406 13.3397 30.3393C13.3043 30.3393 13.2702 30.3402 13.2343 30.3402ZM15.3671 30.1917C15.4176 29.9197 15.4533 29.6813 15.4813 29.4934C15.5409 29.0944 15.9286 27.1041 17.7109 27.1041C18.2867 27.1041 18.7209 27.5067 18.7209 28.0407C18.7209 28.5387 18.3444 29.0497 17.6882 29.4426C17.2379 29.712 16.5089 30.0156 15.3671 30.1917ZM15.9274 31.4882C16.902 31.3074 17.7267 31.0173 18.3923 30.6188C19.4724 29.9723 20.0919 29.0326 20.0919 28.0406C20.0919 26.7465 19.046 25.733 17.7108 25.733C15.622 25.733 14.5367 27.3786 14.1935 28.9259C13.8647 28.0947 13.6959 27.2089 13.6962 26.315C13.6955 25.3412 13.8955 24.3777 14.2836 23.4846C16.1295 23.4912 17.98 23.9447 19.4049 24.9938C20.665 25.9215 21.7117 27.2811 22.4012 28.7755C21.8072 30.4537 20.1834 31.6836 17.656 32.3555C17.5215 32.3918 17.3888 32.4346 17.2585 32.4839C16.7776 32.2047 16.331 31.8706 15.9274 31.4882ZM21.2373 36.6548C19.6409 37.5603 18.1866 37.698 17.2471 37.0319C16.6372 36.5997 16.325 35.8659 16.4518 35.1627C16.5378 34.6857 16.8083 34.2953 17.2321 34.0175C18.3243 34.5291 19.542 34.8156 20.8257 34.8156C21.5555 34.816 22.2823 34.7222 22.988 34.5366C22.7046 35.3335 22.1802 36.1199 21.2373 36.6548ZM10.1442 36.5656C6.79718 36.5656 5.14431 34.6848 5.07251 34.6012C4.95472 34.4642 4.78763 34.3793 4.60757 34.3648C4.4275 34.3504 4.24901 34.4076 4.11089 34.524C3.97277 34.6404 3.88619 34.8067 3.86996 34.9866C3.85373 35.1665 3.90918 35.3455 4.02424 35.4848C4.10826 35.5849 6.12746 37.9367 10.1442 37.9367C10.3261 37.9367 10.5004 37.8645 10.629 37.7359C10.7576 37.6073 10.8298 37.433 10.8298 37.2511C10.8298 37.0693 10.7576 36.895 10.629 36.7664C10.5004 36.6378 10.3261 36.5656 10.1442 36.5656ZM4.85076 23.8413C5.03057 23.8681 5.21366 23.8224 5.35978 23.7142C5.50589 23.606 5.60309 23.4443 5.63 23.2645C5.9755 20.9495 8.5905 19.5149 8.61696 19.5008C8.77724 19.4149 8.89686 19.2689 8.94951 19.0949C9.00215 18.9209 8.98351 18.7331 8.89768 18.5728C8.81185 18.4125 8.66587 18.2929 8.49185 18.2403C8.31782 18.1876 8.13001 18.2063 7.96973 18.2921C7.83737 18.3627 4.72217 20.0588 4.27393 23.0621C4.24709 23.2419 4.29279 23.425 4.40096 23.5712C4.50914 23.7173 4.67093 23.8145 4.85076 23.8413ZM30.3763 30.3298C30.2007 30.283 30.0136 30.3078 29.8562 30.3987C29.6988 30.4897 29.584 30.6394 29.5369 30.815C28.9306 33.0821 26.5213 34.4249 26.4904 34.442C26.3319 34.5294 26.2143 34.676 26.1635 34.8498C26.1126 35.0235 26.1326 35.2103 26.219 35.3695C26.3054 35.5286 26.4512 35.647 26.6246 35.699C26.798 35.751 26.985 35.7322 27.1447 35.6469C27.265 35.5818 30.0995 34.0177 30.8614 31.1692C30.8847 31.0822 30.8906 30.9915 30.8788 30.9023C30.867 30.813 30.8378 30.727 30.7927 30.649C30.7477 30.5711 30.6877 30.5028 30.6163 30.448C30.5448 30.3933 30.4633 30.3531 30.3763 30.3298Z" fill="#347BFA"/>
<path d="M36.1399 11.3912C35.9581 11.3912 35.7837 11.319 35.6552 11.1904C35.5266 11.0619 35.4544 10.8875 35.4544 10.7057V8.68805C35.4544 8.50623 35.5266 8.33186 35.6552 8.20329C35.7837 8.07473 35.9581 8.0025 36.1399 8.0025C36.4842 8.0025 36.8045 7.86478 37.042 7.61464C37.2793 7.36468 37.4001 7.03676 37.3822 6.69135C37.3486 6.04465 36.8143 5.52785 36.1659 5.51476C36.1575 5.51465 36.1491 5.5146 36.1406 5.51458C35.5212 5.51458 34.9937 5.97029 34.908 6.58421C34.9 6.64196 34.896 6.70019 34.896 6.7585C34.896 6.94032 34.8238 7.11469 34.6952 7.24325C34.5666 7.37182 34.3923 7.44404 34.2104 7.44404C34.0286 7.44404 33.8543 7.37182 33.7257 7.24325C33.5971 7.11469 33.5249 6.94032 33.5249 6.7585C33.5249 6.63694 33.5333 6.51451 33.55 6.39463C33.7328 5.08497 34.8701 4.11941 36.1934 4.14401C37.5571 4.17152 38.6807 5.25926 38.7513 6.62024C38.7889 7.3449 38.535 8.03335 38.0362 8.55858C37.706 8.90525 37.2873 9.1551 36.8255 9.28113V10.7056C36.8255 10.7956 36.8077 10.8848 36.7733 10.968C36.7389 11.0511 36.6884 11.1267 36.6247 11.1904C36.561 11.2541 36.4855 11.3046 36.4023 11.339C36.3191 11.3735 36.2299 11.3912 36.1399 11.3912Z" fill="#347BFA"/>
<path d="M36.1401 13.8043C36.5188 13.8043 36.8257 13.4974 36.8257 13.1188C36.8257 12.7402 36.5188 12.4332 36.1401 12.4332C35.7615 12.4332 35.4546 12.7402 35.4546 13.1188C35.4546 13.4974 35.7615 13.8043 36.1401 13.8043Z" fill="#6C7FD8"/>
<path d="M29.1156 11.3912C28.9338 11.3912 28.7594 11.319 28.6308 11.1904C28.5023 11.0619 28.43 10.8875 28.43 10.7057V8.68805C28.43 8.50623 28.5023 8.33186 28.6308 8.20329C28.7594 8.07473 28.9338 8.0025 29.1156 8.0025C29.4599 8.0025 29.7802 7.86478 30.0176 7.61464C30.2549 7.36468 30.3757 7.03676 30.3577 6.69135C30.3242 6.04465 29.7899 5.52785 29.1415 5.51476C29.1331 5.51465 29.1246 5.5146 29.1162 5.51458C28.4968 5.51458 27.9693 5.97029 27.8836 6.58421C27.8756 6.64196 27.8716 6.70019 27.8716 6.7585C27.8716 6.94032 27.7994 7.11469 27.6708 7.24325C27.5422 7.37182 27.3679 7.44404 27.186 7.44404C27.0042 7.44404 26.8298 7.37182 26.7013 7.24325C26.5727 7.11469 26.5005 6.94032 26.5005 6.7585C26.5005 6.63694 26.5089 6.51451 26.5256 6.39463C26.7084 5.08497 27.8457 4.11941 29.169 4.14401C30.5327 4.17152 31.6562 5.25926 31.7269 6.62024C31.7645 7.3449 31.5106 8.03335 31.0118 8.55858C30.6816 8.90525 30.2629 9.1551 29.801 9.28113V10.7056C29.8011 10.7956 29.7834 10.8848 29.7489 10.968C29.7145 11.0511 29.664 11.1267 29.6004 11.1904C29.5367 11.2541 29.4611 11.3046 29.378 11.339C29.2948 11.3735 29.2056 11.3912 29.1156 11.3912Z" fill="#347BFA"/>
<path d="M29.1157 13.8043C29.4943 13.8043 29.8013 13.4974 29.8013 13.1188C29.8013 12.7402 29.4943 12.4332 29.1157 12.4332C28.7371 12.4332 28.4302 12.7402 28.4302 13.1188C28.4302 13.4974 28.7371 13.8043 29.1157 13.8043Z" fill="#6C7FD8"/>
<path d="M22.0911 11.3912C21.9093 11.3912 21.7349 11.319 21.6063 11.1904C21.4778 11.0619 21.4055 10.8875 21.4055 10.7057V8.68805C21.4055 8.50623 21.4778 8.33186 21.6063 8.20329C21.7349 8.07473 21.9093 8.0025 22.0911 8.0025C22.4354 8.0025 22.7557 7.86478 22.9932 7.61464C23.2305 7.36468 23.3513 7.03676 23.3333 6.69135C23.2998 6.04465 22.7655 5.52785 22.1171 5.51476C22.1087 5.51465 22.1002 5.5146 22.0918 5.51458C21.4724 5.51458 20.9449 5.97029 20.8592 6.58421C20.8512 6.64196 20.8472 6.70019 20.8472 6.7585C20.8472 6.84852 20.8294 6.93767 20.795 7.02084C20.7605 7.10402 20.71 7.17959 20.6464 7.24325C20.5827 7.30691 20.5071 7.35741 20.424 7.39186C20.3408 7.42631 20.2516 7.44404 20.1616 7.44404C20.0716 7.44404 19.9824 7.42631 19.8993 7.39186C19.8161 7.35741 19.7405 7.30691 19.6769 7.24325C19.6132 7.17959 19.5627 7.10402 19.5283 7.02084C19.4938 6.93767 19.4761 6.84852 19.4761 6.7585C19.4761 6.63694 19.4845 6.51451 19.5012 6.39463C19.684 5.08497 20.8212 4.11941 22.1446 4.14401C23.5083 4.17152 24.6318 5.25926 24.7025 6.62024C24.7401 7.3449 24.4862 8.03335 23.9874 8.55858C23.6572 8.90525 23.2385 9.1551 22.7766 9.28113V10.7056C22.7766 10.7956 22.7589 10.8848 22.7245 10.968C22.69 11.0511 22.6395 11.1267 22.5759 11.1904C22.5122 11.2541 22.4366 11.3046 22.3535 11.339C22.2703 11.3735 22.1811 11.3912 22.0911 11.3912Z" fill="#347BFA"/>
<path d="M22.0913 13.8043C22.4699 13.8043 22.7769 13.4974 22.7769 13.1188C22.7769 12.7402 22.4699 12.4332 22.0913 12.4332C21.7127 12.4332 21.4058 12.7402 21.4058 13.1188C21.4058 13.4974 21.7127 13.8043 22.0913 13.8043Z" fill="#6C7FD8"/>
</svg>
