<svg width="18" height="18" viewBox="0 0 18 18" fill="none" xmlns="http://www.w3.org/2000/svg">
<path fill-rule="evenodd" clip-rule="evenodd" d="M3.07429 0.111084C2.28846 0.111084 1.53482 0.423253 0.97916 0.978916C0.423497 1.53458 0.111328 2.28822 0.111328 3.07405V14.9259C0.111328 15.7117 0.423497 16.4654 0.97916 17.021C1.53482 17.5767 2.28846 17.8889 3.07429 17.8889H14.9261C15.712 17.8889 16.4656 17.5767 17.0213 17.021C17.5769 16.4654 17.8891 15.7117 17.8891 14.9259V3.07405C17.8891 2.28822 17.5769 1.53458 17.0213 0.978916C16.4656 0.423253 15.712 0.111084 14.9261 0.111084H3.07429ZM7.02491 5.04936C7.02491 4.78741 7.12897 4.5362 7.31419 4.35098C7.49941 4.16576 7.75062 4.0617 8.01256 4.0617H13.9385C14.2004 4.0617 14.4516 4.16576 14.6369 4.35098C14.8221 4.5362 14.9261 4.78741 14.9261 5.04936C14.9261 5.3113 14.8221 5.56251 14.6369 5.74773C14.4516 5.93295 14.2004 6.03701 13.9385 6.03701H8.01256C7.75062 6.03701 7.49941 5.93295 7.31419 5.74773C7.12897 5.56251 7.02491 5.3113 7.02491 5.04936ZM7.02491 8.99997C7.02491 8.73803 7.12897 8.48682 7.31419 8.3016C7.49941 8.11637 7.75062 8.01232 8.01256 8.01232H13.9385C14.2004 8.01232 14.4516 8.11637 14.6369 8.3016C14.8221 8.48682 14.9261 8.73803 14.9261 8.99997C14.9261 9.26192 14.8221 9.51313 14.6369 9.69835C14.4516 9.88357 14.2004 9.98763 13.9385 9.98763H8.01256C7.75062 9.98763 7.49941 9.88357 7.31419 9.69835C7.12897 9.51313 7.02491 9.26192 7.02491 8.99997ZM7.02491 12.9506C7.02491 12.6886 7.12897 12.4374 7.31419 12.2522C7.49941 12.067 7.75062 11.9629 8.01256 11.9629H13.9385C14.2004 11.9629 14.4516 12.067 14.6369 12.2522C14.8221 12.4374 14.9261 12.6886 14.9261 12.9506C14.9261 13.2125 14.8221 13.4637 14.6369 13.649C14.4516 13.8342 14.2004 13.9382 13.9385 13.9382H8.01256C7.75062 13.9382 7.49941 13.8342 7.31419 13.649C7.12897 13.4637 7.02491 13.2125 7.02491 12.9506ZM4.06195 4.0617C3.8 4.0617 3.54879 4.16576 3.36357 4.35098C3.17835 4.5362 3.07429 4.78741 3.07429 5.04936C3.07429 5.3113 3.17835 5.56251 3.36357 5.74773C3.54879 5.93295 3.8 6.03701 4.06195 6.03701C4.32389 6.03701 4.57609 5.93295 4.76131 5.74773C4.94653 5.56251 5.05059 5.3113 5.05059 5.04936C5.05059 4.78741 4.94653 4.5362 4.76131 4.35098C4.57609 4.16576 4.32389 4.0617 4.06195 4.0617ZM3.07429 8.99997C3.07429 8.73803 3.17835 8.48682 3.36357 8.3016C3.54879 8.11637 3.8 8.01232 4.06195 8.01232C4.32389 8.01232 4.57609 8.11637 4.76131 8.3016C4.94653 8.48682 5.05059 8.73803 5.05059 8.99997C5.05059 9.26192 4.94653 9.51313 4.76131 9.69835C4.57609 9.88357 4.32488 9.98763 4.06293 9.98763C3.80099 9.98763 3.54879 9.88357 3.36357 9.69835C3.17835 9.51313 3.07429 9.26192 3.07429 8.99997ZM4.06195 11.9629C3.8 11.9629 3.54879 12.067 3.36357 12.2522C3.17835 12.4374 3.07429 12.6886 3.07429 12.9506C3.07429 13.2125 3.17835 13.4637 3.36357 13.649C3.54879 13.8342 3.8 13.9382 4.06195 13.9382C4.32389 13.9382 4.57609 13.8342 4.76131 13.649C4.94653 13.4637 5.05059 13.2125 5.05059 12.9506C5.05059 12.6886 4.94653 12.4374 4.76131 12.2522C4.57609 12.067 4.32389 11.9629 4.06195 11.9629Z" fill="url(#paint0_linear_1476_14910)"/>
<defs>
<linearGradient id="paint0_linear_1476_14910" x1="9.00022" y1="0.111084" x2="9.00022" y2="17.8889" gradientUnits="userSpaceOnUse">
<stop stop-color="#6681F4"/>
<stop offset="1" stop-color="#364CEB"/>
</linearGradient>
</defs>
</svg>
