<svg width="18" height="18" viewBox="0 0 18 18" fill="none" xmlns="http://www.w3.org/2000/svg">
<path d="M3.76607 0.682838C3.76361 0.572923 3.73023 0.465926 3.66974 0.374122C3.60925 0.282317 3.5241 0.209424 3.42407 0.163804C3.32404 0.118185 3.21318 0.101688 3.1042 0.116205C2.99522 0.130722 2.89254 0.175666 2.80794 0.24588C1.68607 1.17687 1.00256 1.88892 0.607235 2.54295C0.189925 3.2302 0.111328 3.82107 0.111328 4.43721C0.111328 5.11964 0.382422 5.77411 0.864972 6.25666C1.34752 6.73921 2.002 7.0103 2.68443 7.0103C3.36686 7.0103 4.02133 6.73921 4.50388 6.25666C4.98643 5.77411 5.25753 5.11964 5.25753 4.43721C5.25753 3.59745 4.84115 3.0309 4.51367 2.58599L4.4187 2.45593C4.07998 1.98623 3.78478 1.51699 3.76607 0.682838ZM5.68513 2.64681C6.28237 2.36292 6.93543 2.21587 7.59671 2.2164C9.89332 2.2164 11.7829 3.95815 12.0168 6.193H10.0528C9.27736 6.193 8.53364 6.50105 7.98528 7.04941C7.43693 7.59776 7.12887 8.34148 7.12887 9.11696V11.0809C6.80039 11.0469 6.47679 10.976 6.16419 10.8695C6.14121 11.2683 6.10876 11.6666 6.06688 12.0639C6.40934 12.1612 6.76334 12.2251 7.12887 12.2557V14.0292C7.12887 14.8047 7.43693 15.5484 7.98528 16.0968C8.53364 16.6451 9.27736 16.9532 10.0528 16.9532H14.9651C15.7406 16.9532 16.4843 16.6451 17.0327 16.0968C17.581 15.5484 17.8891 14.8047 17.8891 14.0292V9.11696C17.8891 8.34148 17.581 7.59776 17.0327 7.04941C16.4843 6.50105 15.7406 6.193 14.9651 6.193H13.1916C12.9539 3.31113 10.5399 1.04681 7.59624 1.04681C6.69783 1.04547 5.81232 1.26067 5.01472 1.67418C5.06384 1.74997 5.11811 1.82716 5.17753 1.9095L5.26642 2.02973C5.38337 2.18646 5.53729 2.39277 5.6856 2.64728M13.1668 7.36258H14.9647C15.43 7.36258 15.8762 7.54742 16.2052 7.87643C16.5342 8.20544 16.719 8.65167 16.719 9.11696V14.0292C16.719 14.4945 16.5342 14.9408 16.2052 15.2698C15.8762 15.5988 15.43 15.7836 14.9647 15.7836H10.0524C9.58709 15.7836 9.14085 15.5988 8.81184 15.2698C8.48283 14.9408 8.298 14.4945 8.298 14.0292V12.2313C9.53476 12.0751 10.6844 11.5119 11.5659 10.6305C12.4474 9.74901 13.0106 8.59935 13.1668 7.36258ZM11.9855 7.36258C11.837 8.28706 11.4007 9.14114 10.7386 9.80321C10.0766 10.4653 9.22247 10.9016 8.298 11.0501V9.11696C8.298 8.65167 8.48283 8.20544 8.81184 7.87643C9.14085 7.54742 9.58709 7.36258 10.0524 7.36258H11.9855ZM0.5001 7.44071C0.527235 7.3774 0.556552 7.3144 0.588053 7.25171C1.19338 7.7038 1.92891 7.94755 2.68443 7.94644C3.44058 7.94745 4.17667 7.70319 4.78221 7.2503C4.81402 7.3133 4.84365 7.37709 4.87109 7.44165C5.19858 8.21311 5.25753 9.15626 5.25753 9.91088C5.25753 11.146 5.06665 13.036 4.71671 14.6267C4.54221 15.4187 4.32139 16.1705 4.0477 16.738C3.91203 17.0201 3.74782 17.2886 3.54571 17.494C3.34221 17.7008 3.05355 17.8889 2.6863 17.8889C2.31905 17.8889 2.03039 17.7013 1.82688 17.4945C1.62478 17.2886 1.46057 17.0206 1.32443 16.7385C1.05028 16.171 0.828521 15.4192 0.654018 14.6271C0.303141 13.0365 0.111328 11.1464 0.111328 9.91088C0.111328 9.15579 0.171211 8.21264 0.5001 7.44071Z" fill="url(#paint0_linear_1476_14913)"/>
<defs>
<linearGradient id="paint0_linear_1476_14913" x1="9.00022" y1="0.111084" x2="9.00022" y2="17.8889" gradientUnits="userSpaceOnUse">
<stop stop-color="#6681F4"/>
<stop offset="1" stop-color="#364CEB"/>
</linearGradient>
</defs>
</svg>
