<svg width="20" height="20" viewBox="0 0 20 20" fill="none" xmlns="http://www.w3.org/2000/svg">
<g clip-path="url(#clip0_1476_14920)">
<path fill-rule="evenodd" clip-rule="evenodd" d="M12.2585 1.35325C12.2585 1.28902 12.2321 1.22743 12.185 1.18201C12.138 1.1366 12.0741 1.11108 12.0076 1.11108H4.98251C4.25055 1.11108 3.54857 1.39174 3.031 1.8913C2.51343 2.39086 2.22266 3.06841 2.22266 3.7749V17.3362C2.22266 18.0426 2.51343 18.7202 3.031 19.2198C3.54857 19.7193 4.25055 20 4.98251 20H15.0184C15.7503 20 16.4523 19.7193 16.9699 19.2198C17.4874 18.7202 17.7782 18.0426 17.7782 17.3362V7.79194C17.7782 7.72771 17.7518 7.66612 17.7047 7.6207C17.6577 7.57529 17.5939 7.54977 17.5273 7.54977H13.0112C12.8116 7.54977 12.6201 7.47323 12.479 7.33699C12.3378 7.20074 12.2585 7.01596 12.2585 6.82328V1.35325ZM13.0112 10.7977C13.2108 10.7977 13.4023 10.8742 13.5434 11.0105C13.6846 11.1467 13.7639 11.3315 13.7639 11.5242C13.7639 11.7169 13.6846 11.9017 13.5434 12.0379C13.4023 12.1741 13.2108 12.2507 13.0112 12.2507H6.98968C6.79006 12.2507 6.59861 12.1741 6.45745 12.0379C6.31629 11.9017 6.23699 11.7169 6.23699 11.5242C6.23699 11.3315 6.31629 11.1467 6.45745 11.0105C6.59861 10.8742 6.79006 10.7977 6.98968 10.7977H13.0112ZM13.0112 14.6723C13.2108 14.6723 13.4023 14.7489 13.5434 14.8851C13.6846 15.0214 13.7639 15.2062 13.7639 15.3988C13.7639 15.5915 13.6846 15.7763 13.5434 15.9125C13.4023 16.0488 13.2108 16.1253 13.0112 16.1253H6.98968C6.79006 16.1253 6.59861 16.0488 6.45745 15.9125C6.31629 15.7763 6.23699 15.5915 6.23699 15.3988C6.23699 15.2062 6.31629 15.0214 6.45745 14.8851C6.59861 14.7489 6.79006 14.6723 6.98968 14.6723H13.0112Z" fill="url(#paint0_linear_1476_14920)"/>
<path d="M13.333 1.37896C13.333 1.16621 13.565 1.03092 13.7368 1.16389C13.8827 1.27721 14.0121 1.40903 14.125 1.55934L17.7462 6.41226C17.828 6.52326 17.739 6.66664 17.5972 6.66664H13.6335C13.5538 6.66664 13.4774 6.63618 13.421 6.58197C13.3647 6.52776 13.333 6.45424 13.333 6.37757V1.37896Z" fill="url(#paint1_linear_1476_14920)"/>
</g>
<defs>
<linearGradient id="paint0_linear_1476_14920" x1="10.0004" y1="1.11108" x2="10.0004" y2="20" gradientUnits="userSpaceOnUse">
<stop stop-color="#6681F4"/>
<stop offset="1" stop-color="#364CEB"/>
</linearGradient>
<linearGradient id="paint1_linear_1476_14920" x1="15.5552" y1="1.11108" x2="15.5552" y2="6.66664" gradientUnits="userSpaceOnUse">
<stop stop-color="#6681F4"/>
<stop offset="1" stop-color="#364CEB"/>
</linearGradient>
<clipPath id="clip0_1476_14920">
<rect width="20" height="20" fill="white"/>
</clipPath>
</defs>
</svg>
