<svg width="36" height="36" viewBox="0 0 36 36" fill="none" xmlns="http://www.w3.org/2000/svg">
<g clip-path="url(#clip0_1476_14923)">
<path d="M19.0503 15.8069C19.1826 15.3944 19.7435 15.3944 19.8759 15.8069L20.6522 18.2282C20.8231 18.7604 21.111 19.244 21.4931 19.6406C21.8752 20.0373 22.341 20.336 22.8535 20.5132L25.1837 21.3194C25.5808 21.4569 25.5808 22.0394 25.1837 22.1769L22.8523 22.9832C22.3399 23.1607 21.8742 23.4597 21.4923 23.8565C21.1104 24.2533 20.8228 24.7371 20.6522 25.2695L19.8759 27.6895C19.8474 27.7798 19.7921 27.8584 19.7179 27.9142C19.6438 27.97 19.5546 28 19.4631 28C19.3715 28 19.2823 27.97 19.2082 27.9142C19.1341 27.8584 19.0788 27.7798 19.0503 27.6895L18.2739 25.2682C18.1032 24.7361 17.8155 24.2526 17.4336 23.856C17.0517 23.4593 16.5862 23.1605 16.0738 22.9832L13.7425 22.1769C13.6555 22.1473 13.5798 22.0899 13.5261 22.0129C13.4724 21.9359 13.4435 21.8433 13.4435 21.7482C13.4435 21.6531 13.4724 21.5605 13.5261 21.4835C13.5798 21.4065 13.6555 21.3491 13.7425 21.3194L16.0738 20.5132C16.5862 20.3358 17.0517 20.037 17.4336 19.6404C17.8155 19.2438 18.1032 18.7603 18.2739 18.2282L19.0503 15.8069ZM14.4008 9.43313C14.4181 9.379 14.4513 9.3319 14.4959 9.29851C14.5404 9.26512 14.5939 9.24715 14.6488 9.24715C14.7037 9.24715 14.7572 9.26512 14.8017 9.29851C14.8462 9.3319 14.8795 9.379 14.8967 9.43313L15.3625 10.8856C15.5707 11.5331 16.0594 12.0406 16.6828 12.2569L18.0814 12.7406C18.1335 12.7586 18.1789 12.7931 18.211 12.8393C18.2431 12.8856 18.2605 12.9411 18.2605 12.9981C18.2605 13.0552 18.2431 13.1107 18.211 13.157C18.1789 13.2032 18.1335 13.2377 18.0814 13.2557L16.6828 13.7394C16.3752 13.8455 16.0956 14.0246 15.8664 14.2627C15.6371 14.5008 15.4646 14.7911 15.3625 15.1107L14.8967 16.5632C14.8795 16.6173 14.8462 16.6644 14.8017 16.6978C14.7572 16.7312 14.7037 16.7491 14.6488 16.7491C14.5939 16.7491 14.5404 16.7312 14.4959 16.6978C14.4513 16.6644 14.4181 16.6173 14.4008 16.5632L13.9351 15.1107C13.833 14.7911 13.6604 14.5008 13.4312 14.2627C13.202 14.0246 12.9224 13.8455 12.6147 13.7394L11.2162 13.2557C11.1641 13.2377 11.1187 13.2032 11.0866 13.157C11.0544 13.1107 11.0371 13.0552 11.0371 12.9981C11.0371 12.9411 11.0544 12.8856 11.0866 12.8393C11.1187 12.7931 11.1641 12.7586 11.2162 12.7406L12.6147 12.2569C12.9224 12.1508 13.202 11.9717 13.4312 11.7336C13.6604 11.4955 13.833 11.2052 13.9351 10.8856L14.4008 9.43313ZM22.9089 8.12188C22.9208 8.08629 22.9431 8.05542 22.9726 8.03358C23.0022 8.01174 23.0375 8 23.0738 8C23.1101 8 23.1454 8.01174 23.175 8.03358C23.2045 8.05542 23.2268 8.08629 23.2387 8.12188L23.5492 9.08938C23.6876 9.52188 24.0138 9.86064 24.4302 10.0044L25.3618 10.3269C25.3961 10.3392 25.4258 10.3624 25.4468 10.393C25.4678 10.4237 25.4791 10.4605 25.4791 10.4981C25.4791 10.5358 25.4678 10.5725 25.4468 10.6032C25.4258 10.6339 25.3961 10.657 25.3618 10.6694L24.4302 10.9919C24.2252 11.0631 24.0389 11.1829 23.886 11.3417C23.7331 11.5004 23.6178 11.6939 23.5492 11.9069L23.2387 12.8744C23.2268 12.91 23.2045 12.9409 23.175 12.9627C23.1454 12.9845 23.1101 12.9963 23.0738 12.9963C23.0375 12.9963 23.0022 12.9845 22.9726 12.9627C22.9431 12.9409 22.9208 12.91 22.9089 12.8744L22.5984 11.9069C22.5298 11.6939 22.4145 11.5004 22.2616 11.3417C22.1087 11.1829 21.9224 11.0631 21.7174 10.9919L20.787 10.6694C20.7527 10.657 20.723 10.6339 20.702 10.6032C20.681 10.5725 20.6697 10.5358 20.6697 10.4981C20.6697 10.4605 20.681 10.4237 20.702 10.393C20.723 10.3624 20.7527 10.3392 20.787 10.3269L21.7186 10.0044C22.135 9.86064 22.4612 9.52188 22.5996 9.08938L22.9089 8.12188Z" fill="url(#paint0_linear_1476_14923)"/>
</g>
<defs>
<linearGradient id="paint0_linear_1476_14923" x1="18.5556" y1="8" x2="18.5556" y2="28" gradientUnits="userSpaceOnUse">
<stop stop-color="#6681F4"/>
<stop offset="1" stop-color="#364CEB"/>
</linearGradient>
<clipPath id="clip0_1476_14923">
<rect width="20" height="20" fill="white" transform="translate(8 8)"/>
</clipPath>
</defs>
</svg>
