<svg width="36" height="36" viewBox="0 0 36 36" fill="none" xmlns="http://www.w3.org/2000/svg">
<path d="M26.333 12.1667C26.333 12.8298 26.0696 13.4657 25.6008 13.9345C25.1319 14.4034 24.496 14.6667 23.833 14.6667C23.17 14.6667 22.5341 14.4034 22.0652 13.9345C21.5964 13.4657 21.333 12.8298 21.333 12.1667C21.333 11.5037 21.5964 10.8678 22.0652 10.399C22.5341 9.93014 23.17 9.66675 23.833 9.66675C24.496 9.66675 25.1319 9.93014 25.6008 10.399C26.0696 10.8678 26.333 11.5037 26.333 12.1667Z" fill="url(#paint0_linear_1476_14926)"/>
<path fill-rule="evenodd" clip-rule="evenodd" d="M21.0103 9.69841C20.1587 9.66675 19.1662 9.66675 18.0003 9.66675C14.072 9.66675 12.1078 9.66675 10.887 10.8867C9.66699 12.1084 9.66699 14.0717 9.66699 18.0001C9.66699 21.9284 9.66699 23.8926 10.887 25.1126C12.1087 26.3334 14.072 26.3334 18.0003 26.3334C21.9287 26.3334 23.8928 26.3334 25.1128 25.1126C26.3337 23.8934 26.3337 21.9284 26.3337 18.0001C26.3337 16.8342 26.3337 15.8417 26.302 14.9901C25.586 15.6169 24.6586 15.9482 23.7075 15.9166C22.7564 15.8851 21.8529 15.4932 21.1801 14.8204C20.5072 14.1475 20.1153 13.244 20.0838 12.2929C20.0522 11.3418 20.3835 10.4144 21.0103 9.69841ZM22.567 15.8534C22.6943 15.9595 22.7742 16.1118 22.7892 16.2769C22.8042 16.4419 22.753 16.6061 22.647 16.7334L21.1228 18.5626C20.8495 18.8909 20.6028 19.1876 20.3728 19.3959C20.1212 19.6209 19.8062 19.8234 19.3895 19.8234C18.9728 19.8234 18.657 19.6217 18.4062 19.3951C18.1762 19.1867 17.9295 18.8909 17.6553 18.5617L17.412 18.2701C17.1028 17.8992 16.9128 17.6734 16.7562 17.5326C16.7154 17.493 16.6697 17.4589 16.6203 17.4309L16.612 17.4267L16.6078 17.4284L16.602 17.4309C16.5526 17.4589 16.5069 17.493 16.4662 17.5326C16.3103 17.6742 16.1203 17.8992 15.8112 18.2701L14.3137 20.0667C14.2062 20.1895 14.055 20.2655 13.8924 20.2783C13.7297 20.2911 13.5685 20.2398 13.4431 20.1354C13.3178 20.0309 13.2383 19.8816 13.2216 19.7193C13.2048 19.557 13.2522 19.3946 13.3537 19.2667L14.8778 17.4376C15.1512 17.1092 15.3978 16.8126 15.6278 16.6042C15.8795 16.3792 16.1945 16.1767 16.6112 16.1767C17.0278 16.1767 17.3437 16.3784 17.5945 16.6051C17.8245 16.8134 18.0712 17.1092 18.3453 17.4384L18.5887 17.7301C18.8978 18.1009 19.0878 18.3267 19.2445 18.4676C19.3162 18.5326 19.3595 18.5592 19.3803 18.5692L19.3828 18.5701L19.3895 18.5734L19.3978 18.5692C19.4475 18.5413 19.4935 18.5072 19.5345 18.4676C19.6903 18.3259 19.8803 18.1009 20.1895 17.7301L21.687 15.9334C21.7931 15.8062 21.9454 15.7262 22.1104 15.7112C22.2754 15.6962 22.4397 15.7474 22.567 15.8534Z" fill="url(#paint1_linear_1476_14926)"/>
<defs>
<linearGradient id="paint0_linear_1476_14926" x1="23.833" y1="9.66675" x2="23.833" y2="14.6667" gradientUnits="userSpaceOnUse">
<stop stop-color="#6681F4"/>
<stop offset="1" stop-color="#364CEB"/>
</linearGradient>
<linearGradient id="paint1_linear_1476_14926" x1="18.0003" y1="9.66675" x2="18.0003" y2="26.3334" gradientUnits="userSpaceOnUse">
<stop stop-color="#6681F4"/>
<stop offset="1" stop-color="#364CEB"/>
</linearGradient>
</defs>
</svg>
