<svg width="58" height="58" viewBox="0 0 58 58" fill="none" xmlns="http://www.w3.org/2000/svg">
<path fill-rule="evenodd" clip-rule="evenodd" d="M38.2894 28.7253L28.6768 38.337C28.6768 38.337 32.0951 37.2695 37.0079 38.9777C37.8344 39.265 39.2174 37.8821 38.9301 37.0556C37.2218 32.1428 38.2894 28.7253 38.2894 28.7253Z" fill="#347BFA"/>
<path fill-rule="evenodd" clip-rule="evenodd" d="M12.564 12.6114C18.4003 6.77603 27.8751 6.77603 33.7114 12.6114C39.5467 18.4476 39.5467 27.9225 33.7114 33.7587C27.8751 39.5941 18.4003 39.5941 12.564 33.7587C6.72866 27.9225 6.72866 18.4476 12.564 12.6114Z" fill="#E9F3FC"/>
<path fill-rule="evenodd" clip-rule="evenodd" d="M31.7777 10.9783C32.4665 11.4677 33.1131 12.014 33.7107 12.6113C39.5461 18.4476 39.5461 27.9224 33.7107 33.7587C27.8745 39.594 18.3996 39.594 12.5634 33.7587C12.2199 33.4143 11.8964 33.0581 11.5928 32.6911C17.2496 34.529 23.7148 33.2022 28.2062 28.7109C32.9966 23.9204 34.1874 16.8843 31.7777 10.9783Z" fill="#CADCF0"/>
<path fill-rule="evenodd" clip-rule="evenodd" d="M11.2823 11.33C17.8255 4.78683 28.4494 4.78683 34.9926 11.33C41.5357 17.8731 41.5357 28.497 34.9926 35.0402C28.4494 41.5833 17.8255 41.5833 11.2823 35.0402C4.73922 28.497 4.73922 17.8731 11.2823 11.33ZM13.2045 13.2521C18.6864 7.7702 27.5885 7.7702 33.0704 13.2521C38.5523 18.734 38.5523 27.6361 33.0704 33.118C27.5885 38.5999 18.6864 38.5999 13.2045 33.118C7.72259 27.6361 7.72259 18.734 13.2045 13.2521Z" fill="#A4BBDB"/>
<path fill-rule="evenodd" clip-rule="evenodd" d="M8.11686 30.6403C5.00661 24.3699 6.06148 16.5508 11.2824 11.3299C16.1852 6.42708 23.379 5.19821 29.4319 7.64327C29.5098 8.63955 29.5186 9.64003 29.4581 10.6375C24.1919 7.98583 17.5999 8.85765 13.2045 13.2521C8.54551 17.9111 7.84589 25.0406 11.1075 30.4418C10.1523 30.5723 9.17717 30.6403 8.18754 30.6403H8.11686Z" fill="#B9CAE3"/>
<path fill-rule="evenodd" clip-rule="evenodd" d="M36.2736 42.0889C35.5088 41.3241 35.0791 40.2868 35.0791 39.2052C35.0791 38.1236 35.5088 37.0863 36.2736 36.3215C37.0384 35.5567 38.0757 35.1271 39.1573 35.1271C40.2388 35.1271 41.2761 35.5567 42.0409 36.3215L55.1779 49.4585C55.5314 49.812 54.5263 51.3916 52.935 52.9829C51.3436 54.5743 49.764 55.5794 49.4106 55.2259L36.2736 42.0889Z" fill="#A4BBDB"/>
<path fill-rule="evenodd" clip-rule="evenodd" d="M36.2736 42.0889C35.5088 41.3241 35.0791 40.2868 35.0791 39.2052C35.0791 38.1236 35.5088 37.0863 36.2736 36.3215C37.0384 35.5567 38.0757 35.1271 39.1573 35.1271C40.2388 35.1271 41.2761 35.5567 42.0409 36.3215L53.9309 48.2115C54.2844 48.565 53.2793 50.1446 51.688 51.7359C50.0966 53.3273 48.517 54.3324 48.1636 53.9789L36.2736 42.0889Z" fill="#CADCF0"/>
<path fill-rule="evenodd" clip-rule="evenodd" d="M21.2173 20.3317C21.1965 19.468 21.5209 18.8373 22.0211 18.4675C22.8078 17.8875 23.9832 17.912 24.6212 18.6306C24.8949 18.9397 25.0535 19.3765 25.058 19.9293C25.0689 21.2551 24.4472 22.03 23.8382 22.832C23.0189 23.9132 22.2006 25.0242 22.0991 26.8793C22.086 27.1194 22.1688 27.3549 22.3293 27.534C22.4899 27.713 22.7149 27.821 22.955 27.8341C23.1952 27.8472 23.4306 27.7643 23.6097 27.6038C23.7887 27.4433 23.8967 27.2182 23.9098 26.9781C23.9859 25.5689 24.6601 24.7478 25.2827 23.9268C26.1165 22.8275 26.8859 21.7309 26.8705 19.9148C26.8614 18.8472 26.5053 18.0235 25.976 17.4271C24.7399 16.0351 22.4697 15.8847 20.9454 17.0085C20.0319 17.6827 19.3676 18.7992 19.4048 20.3743C19.4105 20.6146 19.5113 20.8429 19.6853 21.0088C19.8592 21.1748 20.092 21.2649 20.3324 21.2592C20.5727 21.2536 20.801 21.1527 20.9669 20.9787C21.1329 20.8048 21.223 20.572 21.2173 20.3317Z" fill="#347BFA"/>
<path d="M22.9204 31.1995C23.536 31.1995 24.035 30.7004 24.035 30.0848C24.035 29.4692 23.536 28.9701 22.9204 28.9701C22.3047 28.9701 21.8057 29.4692 21.8057 30.0848C21.8057 30.7004 22.3047 31.1995 22.9204 31.1995Z" fill="#347BFA"/>
<path fill-rule="evenodd" clip-rule="evenodd" d="M39.2293 7.7004L41.948 3.16915C42.0092 3.0671 42.0498 2.95399 42.0673 2.83627C42.0848 2.71856 42.079 2.59855 42.0501 2.48309C42.0212 2.36763 41.9699 2.25899 41.8991 2.16336C41.8282 2.06774 41.7392 1.98701 41.6372 1.92578C41.5351 1.86455 41.422 1.82402 41.3043 1.8065C41.1866 1.78898 41.0666 1.79483 40.9511 1.82369C40.8356 1.85255 40.727 1.90388 40.6314 1.97473C40.5358 2.04558 40.455 2.13457 40.3938 2.23662L37.6751 6.76787C37.5514 6.97398 37.5147 7.22076 37.573 7.45394C37.6313 7.68712 37.7798 7.88759 37.9859 8.01125C38.192 8.13491 38.4388 8.17163 38.672 8.11334C38.9051 8.05504 39.1056 7.90651 39.2293 7.7004ZM43.5167 10.6865L53.4855 3.4365C53.6799 3.29517 53.8103 3.08239 53.8478 2.84496C53.8854 2.60753 53.8271 2.36491 53.6858 2.17047C53.6158 2.07419 53.5275 1.99263 53.426 1.93046C53.3245 1.86829 53.2118 1.82672 53.0942 1.80812C52.8568 1.77056 52.6142 1.82886 52.4197 1.97019L42.451 9.22019C42.2565 9.36151 42.1262 9.5743 42.0886 9.81172C42.0511 10.0491 42.1094 10.2918 42.2507 10.4862C42.392 10.6807 42.6048 10.811 42.8422 10.8486C43.0797 10.8861 43.3223 10.8278 43.5167 10.6865ZM45.0157 16.2699L52.2657 14.4574C52.3829 14.4302 52.4935 14.38 52.5911 14.3096C52.6887 14.2392 52.7713 14.1501 52.8341 14.0475C52.8968 13.9448 52.9386 13.8307 52.9568 13.7118C52.975 13.5929 52.9693 13.4715 52.9402 13.3548C52.911 13.2381 52.8589 13.1283 52.7868 13.0319C52.7148 12.9356 52.6243 12.8545 52.5206 12.7935C52.4169 12.7325 52.3021 12.6927 52.1828 12.6766C52.0636 12.6604 51.9424 12.6681 51.8261 12.6993L44.5761 14.5118C44.3466 14.5734 44.1504 14.7227 44.0299 14.9275C43.9094 15.1323 43.8741 15.3763 43.9318 15.6069C43.9894 15.8374 44.1353 16.0361 44.3381 16.1602C44.5408 16.2842 44.7842 16.3236 45.0157 16.2699Z" fill="#347BFA"/>
</svg>
