<svg width="16" height="11" viewBox="0 0 16 11" fill="none" xmlns="http://www.w3.org/2000/svg">
<path d="M10.1339 5.50166C10.1339 6.58167 9.17879 7.4572 8.00059 7.4572C6.82239 7.4572 5.86727 6.58167 5.86727 5.50166C5.86727 4.42164 6.82239 3.54612 8.00059 3.54612C9.17879 3.54612 10.1339 4.42164 10.1339 5.50166Z" fill="#666687"/>
<path fill-rule="evenodd" clip-rule="evenodd" d="M12.5196 1.89777C13.8022 2.65707 14.9466 3.71917 15.8286 4.9695C15.9399 5.12769 15.9994 5.31184 16 5.5001C16.0006 5.68836 15.9422 5.87283 15.8319 6.0316C14.9532 7.29231 13.8112 8.35839 12.5292 9.11525C11.1163 9.9491 9.54626 10.39 7.98928 10.39C6.39729 10.39 4.8673 9.96224 3.44564 9.118C2.18298 8.36908 1.04999 7.30545 0.169664 6.0426C0.0553699 5.88005 -0.003626 5.69002 0.000172543 5.49666C0.00397108 5.3033 0.0703926 5.11534 0.190997 4.95666C1.25932 3.55265 2.48931 2.46213 3.84697 1.71566C5.1783 0.983552 6.57195 0.612305 7.98928 0.612305C9.53393 0.612305 11.1006 1.05689 12.5196 1.89777ZM6.2228 7.94012C6.74903 8.26244 7.36771 8.43447 8.00061 8.43447C8.849 8.43358 9.66236 8.12425 10.2623 7.57434C10.8622 7.02443 11.1996 6.27885 11.2006 5.50116C11.2006 4.92101 11.0129 4.35388 10.6613 3.8715C10.3097 3.38912 9.80991 3.01315 9.22519 2.79113C8.64047 2.56912 7.99706 2.51103 7.37632 2.62421C6.75559 2.73739 6.18541 3.01676 5.73788 3.42699C5.29036 3.83723 4.98559 4.35989 4.86212 4.9289C4.73865 5.49791 4.80202 6.0877 5.04422 6.62369C5.28641 7.15968 5.69656 7.6178 6.2228 7.94012Z" fill="#666687"/>
</svg>
