<svg width="13" height="13" viewBox="0 0 13 13" fill="none" xmlns="http://www.w3.org/2000/svg">
<path d="M12.0957 6.74998C12.0957 10.0112 9.45209 12.6547 6.19089 12.6547C2.92969 12.6547 0.286133 10.0112 0.286133 6.74998C0.286133 3.48878 2.92969 0.845215 6.19089 0.845215V2.02617C5.08007 2.02625 4.0048 2.41781 3.15403 3.13203C2.30325 3.84625 1.73138 4.83745 1.53891 5.93147C1.34643 7.0255 1.54566 8.15236 2.10159 9.11407C2.65752 10.0758 3.53458 10.8108 4.57867 11.19C5.62277 11.5692 6.7671 11.5684 7.81062 11.1876C8.85414 10.8068 9.73008 10.0704 10.2845 9.10783C10.839 8.14528 11.0365 7.01812 10.8424 5.92439C10.6482 4.83066 10.0749 3.84033 9.22299 3.12741L7.96232 4.38807V0.845215H11.5052L10.0603 2.29011C10.6998 2.84385 11.2125 3.52878 11.5638 4.29835C11.915 5.06791 12.0964 5.90406 12.0957 6.74998Z" fill="#EA4335"/>
</svg>
