<svg width="20" height="18" viewBox="0 0 20 18" fill="none" xmlns="http://www.w3.org/2000/svg">
<path d="M19.1161 8.095L1.83329 0.0949962C1.65927 0.0140123 1.46544 -0.0166567 1.27439 0.00656362C1.08333 0.029784 0.902922 0.105937 0.754181 0.226148C0.60544 0.346359 0.494496 0.505676 0.434278 0.685531C0.37406 0.865386 0.36705 1.05837 0.414063 1.242L2.38532 9L0.414063 16.758C0.36661 16.9417 0.373314 17.1349 0.433391 17.315C0.493469 17.495 0.604435 17.6546 0.753311 17.7749C0.902187 17.8952 1.08282 17.9713 1.27407 17.9944C1.46532 18.0174 1.65929 17.9864 1.83329 17.905L19.1161 9.905C19.2908 9.82424 19.4384 9.69625 19.5419 9.53599C19.6453 9.37574 19.7002 9.18983 19.7002 9C19.7002 8.81017 19.6453 8.62426 19.5419 8.464C19.4384 8.30374 19.2908 8.17575 19.1161 8.095ZM2.90584 15.197L3.7588 11.84L9.53329 9L3.7588 6.16L2.90584 2.803L16.2949 9L2.90584 15.197Z" fill="url(#paint0_linear_1476_14859)"/>
<defs>
<linearGradient id="paint0_linear_1476_14859" x1="0.382813" y1="11.2507" x2="19.7002" y2="11.2507" gradientUnits="userSpaceOnUse">
<stop stop-color="#6B2BF1"/>
<stop offset="0.5" stop-color="#1773F1"/>
<stop offset="1" stop-color="#2EC2EB"/>
</linearGradient>
</defs>
</svg>
