<svg width="16" height="16" viewBox="0 0 16 16" fill="none" xmlns="http://www.w3.org/2000/svg">
<path d="M7.99967 5.83337C7.42504 5.83337 6.87394 6.06165 6.46761 6.46798C6.06128 6.87431 5.83301 7.42541 5.83301 8.00004C5.83301 8.57468 6.06128 9.12578 6.46761 9.53211C6.87394 9.93843 7.42504 10.1667 7.99967 10.1667C8.57431 10.1667 9.12541 9.93843 9.53174 9.53211C9.93807 9.12578 10.1663 8.57468 10.1663 8.00004C10.1663 7.42541 9.93807 6.87431 9.53174 6.46798C9.12541 6.06165 8.57431 5.83337 7.99967 5.83337Z" fill="url(#paint0_linear_1476_15601)"/>
<path fill-rule="evenodd" clip-rule="evenodd" d="M8.45327 1.87066C8.3146 1.79361 8.15858 1.75317 7.99994 1.75317C7.84129 1.75317 7.68527 1.79361 7.5466 1.87066L2.7466 4.53733C2.6011 4.61818 2.47986 4.73648 2.39546 4.87996C2.31106 5.02343 2.26657 5.18687 2.2666 5.35333V10.6467C2.2666 10.986 2.4506 11.298 2.7466 11.4627L7.5466 14.1293C7.68527 14.2064 7.84129 14.2468 7.99994 14.2468C8.15858 14.2468 8.3146 14.2064 8.45327 14.1293L13.2533 11.4627C13.3987 11.3819 13.5198 11.2637 13.6042 11.1203C13.6886 10.977 13.7332 10.8137 13.7333 10.6473V5.35333C13.7333 5.18687 13.6888 5.02343 13.6044 4.87996C13.52 4.73648 13.3988 4.61818 13.2533 4.53733L8.45327 1.87066ZM4.83327 8C4.83327 7.16015 5.1669 6.35469 5.76076 5.76083C6.35463 5.16696 7.16008 4.83333 7.99994 4.83333C8.83979 4.83333 9.64524 5.16696 10.2391 5.76083C10.833 6.35469 11.1666 7.16015 11.1666 8C11.1666 8.83985 10.833 9.6453 10.2391 10.2392C9.64524 10.833 8.83979 11.1667 7.99994 11.1667C7.16008 11.1667 6.35463 10.833 5.76076 10.2392C5.1669 9.6453 4.83327 8.83985 4.83327 8Z" fill="url(#paint1_linear_1476_15601)"/>
<defs>
<linearGradient id="paint0_linear_1476_15601" x1="7.99967" y1="5.83337" x2="7.99967" y2="10.1667" gradientUnits="userSpaceOnUse">
<stop stop-color="#6681F4"/>
<stop offset="1" stop-color="#364CEB"/>
</linearGradient>
<linearGradient id="paint1_linear_1476_15601" x1="7.99994" y1="1.75317" x2="7.99994" y2="14.2468" gradientUnits="userSpaceOnUse">
<stop stop-color="#6681F4"/>
<stop offset="1" stop-color="#364CEB"/>
</linearGradient>
</defs>
</svg>
