<svg width="76" height="93" viewBox="0 0 76 93" fill="none" xmlns="http://www.w3.org/2000/svg">
<g clip-path="url(#clip0_1380_16973)">
<path d="M14.39 92.6096C10.5735 92.6096 6.91338 91.0935 4.21473 88.3949C1.51609 85.6962 0 82.0361 0 78.2196C-4.20537e-07 76.1675 0.404354 74.1355 1.18996 72.2398C1.97556 70.344 3.12702 68.6217 4.57853 67.1711C6.03004 65.7205 7.75315 64.5701 9.64941 63.7857C11.5457 63.0014 13.5779 62.5983 15.63 62.5996H28.78V78.2196C28.78 82.0361 27.2639 85.6962 24.5653 88.3949C21.8666 91.0935 18.2065 92.6096 14.39 92.6096Z" fill="#FFC107"/>
<path d="M75.1909 31.49C75.1909 45.39 67.2909 57.37 51.7709 61.25C48.0221 62.176 44.1722 62.6295 40.3109 62.6H28.9109V33H28.8009C27.871 32.8999 26.9361 32.8532 26.0009 32.86C19.543 32.8453 13.3121 35.241 8.52733 39.5781C3.74261 43.9152 0.748488 49.8817 0.130859 56.31V13.24C0.130859 9.72853 1.52578 6.36089 4.00877 3.87791C6.49175 1.39492 9.85939 0 13.3709 0L40.3109 0C63.3809 0 75.1909 13 75.1909 31.49Z" fill="#536DFE"/>
</g>
<defs>
<clipPath id="clip0_1380_16973">
<rect width="75.19" height="92.61" fill="white"/>
</clipPath>
</defs>
</svg>
